<?xml version="1.0" encoding="UTF-8" standalone="no"?>
<svg
   xmlns:cdml="http://www.freesoftware.fsf.org/bkchem/cdml"
   xmlns:dc="http://purl.org/dc/elements/1.1/"
   xmlns:cc="http://creativecommons.org/ns#"
   xmlns:rdf="http://www.w3.org/1999/02/22-rdf-syntax-ns#"
   xmlns:svg="http://www.w3.org/2000/svg"
   xmlns="http://www.w3.org/2000/svg"
   xmlns:sodipodi="http://sodipodi.sourceforge.net/DTD/sodipodi-0.dtd"
   xmlns:inkscape="http://www.inkscape.org/namespaces/inkscape"
   height="183"
   version="1.0"
   viewBox="22 60 690 122"
   width="1035"
   inkscape:version="0.48.1 "
   sodipodi:docname="Creatine synthesis.svg">
  <metadata
     id="metadata102">
    <rdf:RDF>
      <cc:Work
         rdf:about="">
        <dc:format>image/svg+xml</dc:format>
        <dc:type
           rdf:resource="http://purl.org/dc/dcmitype/StillImage" />
        <dc:title></dc:title>
      </cc:Work>
    </rdf:RDF>
  </metadata>
  <defs
     id="defs100" />
  <sodipodi:namedview
     pagecolor="#ffffff"
     bordercolor="#666666"
     borderopacity="1"
     objecttolerance="10"
     gridtolerance="10"
     guidetolerance="10"
     inkscape:pageopacity="0"
     inkscape:pageshadow="2"
     inkscape:window-width="1280"
     inkscape:window-height="964"
     id="namedview98"
     showgrid="false"
     inkscape:zoom="0.70686342"
     inkscape:cx="372.04724"
     inkscape:cy="526.18109"
     inkscape:window-x="-4"
     inkscape:window-y="-4"
     inkscape:window-maximized="1"
     inkscape:current-layer="svg2" />
  <path
     style="font-size:15px;stroke:#000000;stroke-width:1;stroke-linecap:round;font-family:Helvetica"
     d="M 103,136.39999 117.88,127.8"
     id="line8" />
  <path
     style="font-size:15px;stroke:#000000;stroke-width:1;stroke-linecap:round;font-family:Helvetica"
     d="m 117.88,127.8 22.89,13.20999"
     id="line12" />
  <path
     style="font-size:15px;stroke:#000000;stroke-width:1;stroke-linecap:round;font-family:Helvetica"
     d="M 140.77,141.00999 156,132.23"
     id="line16" />
  <g
     style="font-size:15px;fill:#000000;stroke-linecap:round;font-family:helvetica"
     id="text18">
    <path
       d="m 158.0251,125.57051 c 0,-1.78222 0.47852,-3.17748 1.43555,-4.18579 0.95703,-1.00829 2.19238,-1.51244 3.70605,-1.51245 0.99121,1e-5 1.88476,0.23683 2.68067,0.71045 0.79589,0.47364 1.40257,1.13404 1.82006,1.9812 0.41747,0.84717 0.62621,1.80787 0.62623,2.88208 -2e-5,1.08887 -0.21974,2.06299 -0.65918,2.92236 -0.43947,0.85938 -1.06203,1.51001 -1.86768,1.95191 -0.80567,0.44189 -1.67481,0.66284 -2.60742,0.66284 -1.01075,0 -1.91407,-0.24414 -2.70996,-0.73242 -0.7959,-0.48828 -1.39893,-1.15479 -1.80908,-1.99952 -0.41016,-0.84472 -0.61524,-1.73827 -0.61524,-2.68066 z m 1.46484,0.022 c 0,1.29395 0.3479,2.31324 1.04371,3.05786 0.69579,0.74464 1.56859,1.11695 2.6184,1.11695 1.06933,0 1.94946,-0.37598 2.64038,-1.12793 0.69091,-0.75195 1.03637,-1.81885 1.03638,-3.20069 -1e-5,-0.87401 -0.14771,-1.63695 -0.44311,-2.28881 -0.29542,-0.65185 -0.72755,-1.15722 -1.29639,-1.51612 -0.56886,-0.35887 -1.20728,-0.53832 -1.91528,-0.53833 -1.00587,1e-5 -1.87135,0.34547 -2.59644,1.03638 -0.7251,0.69093 -1.08765,1.84449 -1.08765,3.46069 z"
       style="font-size:15px;fill:#000000;stroke-linecap:round;font-family:helvetica"
       id="path3249" />
    <path
       d="m 170.16133,130.8 0,-10.7373 1.4209,0 0,4.40918 5.58105,0 0,-4.40918 1.4209,0 0,10.7373 -1.4209,0 0,-5.06103 -5.58105,0 0,5.06103 z"
       style="font-size:15px;fill:#000000;stroke-linecap:round;font-family:helvetica"
       id="path3251" />
  </g>
  <g
     style="font-size:15px;fill:#000000;stroke-linecap:round;font-family:helvetica"
     id="text20">
    <path
       d="m 44.501171,144.00999 0,-10.7373 1.420899,0 0,4.40918 5.581054,0 0,-4.40918 1.420899,0 0,10.7373 -1.420899,0 0,-5.06103 -5.581054,0 0,5.06103 z"
       style="font-size:15px;fill:#000000;stroke-linecap:round;font-family:helvetica"
       id="path3236" />
    <path
       d="m 54.612255,144.88414 0.98877,-0.13184 c 0.113523,0.56031 0.3067,0.96406 0.579528,1.21125 0.272825,0.24719 0.605161,0.37079 0.99701,0.37079 0.465084,0 0.857845,-0.16114 1.178283,-0.4834 0.32043,-0.32227 0.480648,-0.72144 0.480652,-1.19751 -4e-6,-0.4541 -0.14832,-0.82855 -0.444946,-1.12335 -0.296635,-0.2948 -0.673832,-0.4422 -1.131592,-0.4422 -0.18677,0 -0.419314,0.0366 -0.697632,0.10986 l 0.109864,-0.86792 c 0.06591,0.007 0.119016,0.011 0.159301,0.011 0.42114,0 0.800168,-0.10986 1.137085,-0.32959 0.33691,-0.21973 0.505367,-0.55847 0.505371,-1.01624 -4e-6,-0.36254 -0.122684,-0.66284 -0.368042,-0.90088 -0.245365,-0.23803 -0.562137,-0.35705 -0.950317,-0.35705 -0.384524,0 -0.704958,0.12085 -0.961304,0.36254 -0.256349,0.24171 -0.421144,0.60426 -0.494384,1.08765 l -0.98877,-0.17578 c 0.120849,-0.66284 0.395507,-1.17645 0.823975,-1.54083 0.428465,-0.36438 0.961301,-0.54656 1.59851,-0.54657 0.43945,1e-5 0.844113,0.0943 1.21399,0.28289 0.369868,0.18861 0.652766,0.44587 0.848694,0.77179 0.195917,0.32594 0.293878,0.67201 0.293884,1.03821 -6e-6,0.34791 -0.09339,0.66468 -0.280152,0.95032 -0.186772,0.28565 -0.463261,0.5127 -0.829467,0.68115 0.476069,0.10987 0.845942,0.33784 1.109619,0.6839 0.263666,0.34607 0.395502,0.77912 0.395508,1.29913 -6e-6,0.70313 -0.256354,1.29914 -0.769043,1.78803 -0.5127,0.48889 -1.160893,0.73334 -1.94458,0.73334 -0.70679,0 -1.293642,-0.21057 -1.76056,-0.63172 -0.466919,-0.42114 -0.733337,-0.96679 -0.799255,-1.63696 z"
       style="font-size:75%;baseline-shift:sub"
       id="path3238" />
    <path
       d="m 69.220409,140.24535 1.420899,0.35888 c -0.297862,1.167 -0.83375,2.05689 -1.607666,2.66968 -0.773934,0.61279 -1.719978,0.91919 -2.838135,0.91919 -1.157231,0 -2.098392,-0.2356 -2.823486,-0.70679 -0.7251,-0.47119 -1.276857,-1.15356 -1.655274,-2.04712 -0.378419,-0.89355 -0.567627,-1.85302 -0.567627,-2.87841 0,-1.11816 0.213622,-2.0935 0.640869,-2.92603 0.427245,-0.83251 1.035154,-1.46483 1.823731,-1.89697 0.78857,-0.43212 1.656489,-0.64818 2.60376,-0.6482 1.074212,2e-5 1.977531,0.27345 2.709961,0.82032 0.732412,0.54688 1.242666,1.31592 1.530761,2.30713 l -1.398925,0.32959 c -0.249032,-0.78125 -0.61036,-1.35009 -1.083985,-1.70655 -0.47364,-0.35643 -1.069342,-0.53466 -1.787109,-0.53467 -0.8252,1e-5 -1.514897,0.19777 -2.069092,0.59327 -0.554202,0.39551 -0.943606,0.92652 -1.168213,1.59301 -0.224612,0.66651 -0.336916,1.35377 -0.336914,2.06177 -2e-6,0.91309 0.133054,1.71021 0.39917,2.39136 0.26611,0.68115 0.679928,1.19019 1.241455,1.5271 0.561519,0.33691 1.169429,0.50537 1.823731,0.50537 0.795892,0 1.469719,-0.22949 2.021484,-0.68848 0.551749,-0.45898 0.925284,-1.14013 1.120605,-2.04345 z"
       style="font-size:15px;fill:#000000;stroke-linecap:round;font-family:helvetica"
       id="path3240" />
    <path
       d="m 71.717968,140.78734 0,-1.32569 4.050293,0 0,1.32569 z"
       style="font-size:15px;fill:#000000;stroke-linecap:round;font-family:helvetica"
       id="path3242" />
    <path
       d="m 77.394238,144.00999 0,-10.7373 1.457519,0 5.639648,8.43018 0,-8.43018 1.362305,0 0,10.7373 -1.457519,0 -5.639649,-8.4375 0,8.4375 z"
       style="font-size:15px;fill:#000000;stroke-linecap:round;font-family:helvetica"
       id="path3244" />
    <path
       d="m 88.292675,144.00999 0,-10.7373 1.420898,0 0,4.40918 5.581055,0 0,-4.40918 1.420899,0 0,10.7373 -1.420899,0 0,-5.06103 -5.581055,0 0,5.06103 z"
       style="font-size:15px;fill:#000000;stroke-linecap:round;font-family:helvetica"
       id="path3246" />
  </g>
  <path
     style="font-size:15px;fill:none;stroke:#000000;stroke-width:1;stroke-linecap:round;font-family:Helvetica"
     d="m 194.99,130.99 38.49,0"
     id="polyline24" />
  <path
     style="font-size:15px;fill:#000000;fill-rule:evenodd;stroke:#000000;stroke-width:1;stroke-linecap:round;font-family:Helvetica"
     d="m 233.48,130.99 -2,3 10,-3 -10,-3 z"
     id="polygon26" />
  <g
     style="font-size:15px;fill:#000000;stroke-linecap:round;font-family:helvetica"
     id="text28">
    <path
       d="m 209.0251,110.77051 c 0,-1.78222 0.47852,-3.17748 1.43555,-4.18579 0.95703,-1.00829 2.19238,-1.51244 3.70605,-1.51245 0.99121,1e-5 1.88476,0.23682 2.68067,0.71044 0.79589,0.47365 1.40257,1.13405 1.82006,1.98121 0.41747,0.84717 0.62621,1.80786 0.62623,2.88208 -2e-5,1.08887 -0.21974,2.06299 -0.65918,2.92236 -0.43947,0.85938 -1.06203,1.51001 -1.86768,1.9519 -0.80567,0.4419 -1.67481,0.66285 -2.60742,0.66285 -1.01075,0 -1.91407,-0.24415 -2.70996,-0.73243 -0.7959,-0.48828 -1.39893,-1.15478 -1.80908,-1.99951 -0.41016,-0.84472 -0.61524,-1.73828 -0.61524,-2.68066 z m 1.46484,0.022 c 0,1.29395 0.3479,2.31324 1.04371,3.05786 0.69579,0.74463 1.56859,1.11695 2.6184,1.11695 1.06933,0 1.94946,-0.37598 2.64038,-1.12793 0.69091,-0.75195 1.03637,-1.81885 1.03638,-3.20069 -1e-5,-0.87402 -0.14771,-1.63695 -0.44311,-2.28882 -0.29542,-0.65184 -0.72755,-1.15721 -1.29639,-1.51611 -0.56886,-0.35888 -1.20728,-0.53832 -1.91528,-0.53833 -1.00587,10e-6 -1.87135,0.34547 -2.59644,1.03638 -0.7251,0.69092 -1.08765,1.84449 -1.08765,3.46069 z"
       style="font-size:15px;fill:#000000;stroke-linecap:round;font-family:helvetica"
       id="path3229" />
    <path
       d="m 225.62361,118.04968 0,0.95032 -5.32287,0 c -0.007,-0.23804 0.0311,-0.46692 0.11535,-0.68665 0.1355,-0.36254 0.35248,-0.7196 0.65094,-1.07116 0.29846,-0.35156 0.72968,-0.75806 1.29364,-1.21948 0.87524,-0.71777 1.46667,-1.28632 1.77429,-1.70563 0.30762,-0.41931 0.46143,-0.81573 0.46143,-1.18927 0,-0.39184 -0.14008,-0.72235 -0.42023,-0.99152 -0.28015,-0.26916 -0.64545,-0.40374 -1.09588,-0.40375 -0.47608,1e-5 -0.85694,0.14283 -1.14258,0.42847 -0.28565,0.28565 -0.4303,0.68116 -0.43396,1.18652 l -1.01624,-0.10437 c 0.0696,-0.75805 0.33142,-1.33574 0.78553,-1.73309 0.4541,-0.39733 1.06384,-0.596 1.82922,-0.59601 0.7727,10e-6 1.38427,0.21424 1.83472,0.6427 0.45043,0.42848 0.67565,0.95948 0.67566,1.59302 -1e-5,0.32227 -0.0659,0.63904 -0.19776,0.95032 -0.13184,0.31128 -0.35065,0.63904 -0.65643,0.98327 -0.30579,0.34425 -0.81391,0.81666 -1.52435,1.41724 -0.59327,0.49805 -0.97413,0.83588 -1.14258,1.01349 -0.16846,0.17761 -0.30762,0.35614 -0.41748,0.53558 z"
       style="font-size:75%;baseline-shift:sub"
       id="path3231" />
  </g>
  <g
     style="font-size:15px;fill:#000000;stroke-linecap:round;font-family:helvetica"
     id="text32">
    <path
       d="m 206.81836,149.71535 1.4209,0.35888 c -0.29786,1.167 -0.83375,2.05689 -1.60767,2.66968 -0.77393,0.61279 -1.71998,0.91919 -2.83813,0.91919 -1.15723,0 -2.0984,-0.23559 -2.82349,-0.70679 -0.7251,-0.47119 -1.27686,-1.15356 -1.65527,-2.04712 -0.37842,-0.89355 -0.56763,-1.85302 -0.56763,-2.87841 0,-1.11816 0.21362,-2.0935 0.64087,-2.92603 0.42724,-0.83251 1.03515,-1.46483 1.82373,-1.89697 0.78857,-0.43212 1.65649,-0.64818 2.60376,-0.64819 1.07421,1e-5 1.97753,0.27344 2.70996,0.82031 0.73241,0.54688 1.24267,1.31592 1.53076,2.30713 l -1.39892,0.32959 c -0.24904,-0.78124 -0.61036,-1.35009 -1.08399,-1.70655 -0.47364,-0.35643 -1.06934,-0.53465 -1.78711,-0.53466 -0.8252,1e-5 -1.51489,0.19776 -2.06909,0.59326 -0.5542,0.39551 -0.94361,0.92652 -1.16821,1.59302 -0.22461,0.66651 -0.33692,1.35376 -0.33692,2.06176 0,0.91309 0.13306,1.71021 0.39917,2.39136 0.26611,0.68115 0.67993,1.19019 1.24146,1.5271 0.56152,0.33692 1.16943,0.50537 1.82373,0.50537 0.79589,0 1.46972,-0.22949 2.02148,-0.68848 0.55175,-0.45898 0.92529,-1.14013 1.12061,-2.04345 z"
       style="font-size:15px;fill:#000000;stroke-linecap:round;font-family:helvetica"
       id="path3218" />
    <path
       d="m 214.92627,153.48 0,-1.14258 c -0.60547,0.8789 -1.42823,1.31836 -2.46826,1.31836 -0.45899,0 -0.88746,-0.0879 -1.2854,-0.26367 -0.39795,-0.17579 -0.69336,-0.39673 -0.88623,-0.66285 -0.19288,-0.26611 -0.32837,-0.59204 -0.4065,-0.97778 -0.0537,-0.25879 -0.0806,-0.66894 -0.0806,-1.23047 l 0,-4.81933 1.31836,0 0,4.31396 c -1e-5,0.68848 0.0268,1.15235 0.0806,1.3916 0.083,0.34668 0.25879,0.6189 0.52735,0.81665 0.26855,0.19776 0.60058,0.29663 0.99609,0.29663 0.3955,0 0.7666,-0.10131 1.11328,-0.30395 0.34668,-0.20264 0.59204,-0.47852 0.73608,-0.82764 0.14404,-0.34912 0.21606,-0.85571 0.21607,-1.51977 l 0,-4.16748 1.31836,0 0,7.77832 z"
       style="font-size:15px;fill:#000000;stroke-linecap:round;font-family:helvetica"
       id="path3220" />
    <path
       d="m 217.18945,153.6631 3.1128,-11.10351 1.05468,0 -3.10547,11.10351 z"
       style="font-size:15px;fill:#000000;stroke-linecap:round;font-family:helvetica"
       id="path3222" />
    <path
       d="m 222.49219,153.48 0,-10.73731 1.45752,0 5.63965,8.43018 0,-8.43018 1.3623,0 0,10.73731 -1.45752,0 -5.63965,-8.4375 0,8.4375 z"
       style="font-size:15px;fill:#000000;stroke-linecap:round;font-family:helvetica"
       id="path3224" />
    <path
       d="m 233.18555,144.2588 0,-1.51611 1.31836,0 0,1.51611 z m 0,9.2212 0,-7.77832 1.31836,0 0,7.77832 z"
       style="font-size:15px;fill:#000000;stroke-linecap:round;font-family:helvetica"
       id="path3226" />
  </g>
  <path
     style="font-size:15px;stroke:#000000;stroke-width:1;stroke-linecap:round;font-family:Helvetica"
     d="m 310,126.38 14.87,-8.59"
     id="line36" />
  <path
     style="font-size:15px;stroke:#000000;stroke-width:1;stroke-linecap:round;font-family:Helvetica"
     d="M 324.87,117.79 340,126.53"
     id="line40" />
  <g
     style="font-size:15px;fill:#000000;stroke-linecap:round;font-family:helvetica"
     id="text42">
    <path
       d="m 350.11835,130.24535 1.4209,0.35888 c -0.29787,1.167 -0.83375,2.05689 -1.60767,2.66968 -0.77393,0.61279 -1.71998,0.91919 -2.83814,0.91919 -1.15723,0 -2.09839,-0.2356 -2.82348,-0.70679 -0.7251,-0.47119 -1.27686,-1.15356 -1.65527,-2.04712 -0.37842,-0.89355 -0.56763,-1.85302 -0.56763,-2.87841 0,-1.11816 0.21362,-2.0935 0.64087,-2.92603 0.42724,-0.83251 1.03515,-1.46483 1.82373,-1.89697 0.78857,-0.43212 1.65649,-0.64818 2.60376,-0.6482 1.07421,2e-5 1.97753,0.27345 2.70996,0.82032 0.73241,0.54688 1.24266,1.31592 1.53076,2.30713 l -1.39893,0.32959 c -0.24903,-0.78125 -0.61036,-1.35009 -1.08398,-1.70655 -0.47364,-0.35643 -1.06934,-0.53466 -1.78711,-0.53467 -0.8252,10e-6 -1.5149,0.19777 -2.06909,0.59327 -0.5542,0.39551 -0.94361,0.92652 -1.16821,1.59301 -0.22462,0.66651 -0.33692,1.35377 -0.33692,2.06177 0,0.91309 0.13306,1.71021 0.39917,2.39136 0.26611,0.68115 0.67993,1.19019 1.24146,1.5271 0.56152,0.33691 1.16943,0.50537 1.82373,0.50537 0.79589,0 1.46972,-0.22949 2.02148,-0.68848 0.55175,-0.45898 0.92529,-1.14013 1.12061,-2.04345 z"
       style="font-size:15px;fill:#000000;stroke-linecap:round;font-family:helvetica"
       id="path3207" />
    <path
       d="m 352.86493,128.7805 c 0,-1.78222 0.47851,-3.17748 1.43555,-4.18579 0.95702,-1.00829 2.19237,-1.51244 3.70605,-1.51245 0.9912,10e-6 1.88476,0.23683 2.68066,0.71045 0.79589,0.47364 1.40258,1.13404 1.82007,1.9812 0.41747,0.84718 0.62621,1.80787 0.62622,2.88208 -1e-5,1.08887 -0.21973,2.06299 -0.65918,2.92236 -0.43946,0.85938 -1.06202,1.51001 -1.86767,1.95191 -0.80567,0.44189 -1.67481,0.66284 -2.60742,0.66284 -1.01075,0 -1.91407,-0.24414 -2.70996,-0.73242 -0.79591,-0.48828 -1.39893,-1.15479 -1.80909,-1.99951 -0.41015,-0.84473 -0.61523,-1.73828 -0.61523,-2.68067 z m 1.46484,0.022 c 0,1.29395 0.3479,2.31324 1.0437,3.05787 0.6958,0.74463 1.5686,1.11694 2.61841,1.11694 1.06933,0 1.94946,-0.37598 2.64038,-1.12793 0.69091,-0.75195 1.03637,-1.81884 1.03638,-3.20068 -10e-6,-0.87402 -0.14771,-1.63696 -0.44312,-2.28882 -0.29541,-0.65185 -0.72754,-1.15722 -1.29638,-1.51612 -0.56886,-0.35887 -1.20728,-0.53832 -1.91529,-0.53833 -1.00586,10e-6 -1.87134,0.34547 -2.59643,1.03638 -0.7251,0.69093 -1.08765,1.84449 -1.08765,3.46069 z"
       style="font-size:15px;fill:#000000;stroke-linecap:round;font-family:helvetica"
       id="path3209" />
    <path
       d="m 364.52509,128.7805 c -10e-6,-1.78222 0.47851,-3.17748 1.43554,-4.18579 0.95703,-1.00829 2.19238,-1.51244 3.70606,-1.51245 0.9912,10e-6 1.88475,0.23683 2.68066,0.71045 0.79589,0.47364 1.40258,1.13404 1.82007,1.9812 0.41747,0.84718 0.62621,1.80787 0.62622,2.88208 -10e-6,1.08887 -0.21974,2.06299 -0.65918,2.92236 -0.43946,0.85938 -1.06202,1.51001 -1.86768,1.95191 -0.80567,0.44189 -1.67481,0.66284 -2.60742,0.66284 -1.01074,0 -1.91406,-0.24414 -2.70996,-0.73242 -0.7959,-0.48828 -1.39893,-1.15479 -1.80908,-1.99951 -0.41016,-0.84473 -0.61524,-1.73828 -0.61523,-2.68067 z m 1.46484,0.022 c 0,1.29395 0.3479,2.31324 1.0437,3.05787 0.6958,0.74463 1.5686,1.11694 2.61841,1.11694 1.06933,0 1.94945,-0.37598 2.64038,-1.12793 0.69091,-0.75195 1.03637,-1.81884 1.03638,-3.20068 -10e-6,-0.87402 -0.14772,-1.63696 -0.44312,-2.28882 -0.29542,-0.65185 -0.72755,-1.15722 -1.29639,-1.51612 -0.56885,-0.35887 -1.20728,-0.53832 -1.91528,-0.53833 -1.00586,10e-6 -1.87134,0.34547 -2.59643,1.03638 -0.7251,0.69093 -1.08765,1.84449 -1.08765,3.46069 z"
       style="font-size:15px;fill:#000000;stroke-linecap:round;font-family:helvetica"
       id="path3211" />
    <path
       d="m 376.66132,134.00999 0,-10.7373 1.42089,0 0,4.40918 5.58106,0 0,-4.40918 1.4209,0 0,10.7373 -1.4209,0 0,-5.06103 -5.58106,0 0,5.06103 z"
       style="font-size:15px;fill:#000000;stroke-linecap:round;font-family:helvetica"
       id="path3213" />
  </g>
  <g
     style="font-size:15px;fill:#000000;stroke-linecap:round;font-family:helvetica"
     id="text44">
    <path
       d="m 250.50117,134.00999 0,-10.7373 1.4209,0 0,4.40918 5.58106,0 0,-4.40918 1.4209,0 0,10.7373 -1.4209,0 0,-5.06103 -5.58106,0 0,5.06103 z"
       style="font-size:15px;fill:#000000;stroke-linecap:round;font-family:helvetica"
       id="path3194" />
    <path
       d="m 260.61226,134.88414 0.98877,-0.13184 c 0.11352,0.56031 0.3067,0.96406 0.57953,1.21125 0.27282,0.24719 0.60516,0.37079 0.99701,0.37079 0.46508,0 0.85784,-0.16114 1.17828,-0.4834 0.32043,-0.32227 0.48065,-0.72144 0.48065,-1.19751 0,-0.4541 -0.14832,-0.82855 -0.44494,-1.12335 -0.29664,-0.2948 -0.67384,-0.4422 -1.1316,-0.4422 -0.18677,0 -0.41931,0.0366 -0.69763,0.10986 l 0.10987,-0.86792 c 0.0659,0.007 0.11901,0.011 0.1593,0.011 0.42114,0 0.80016,-0.10986 1.13708,-0.32959 0.33691,-0.21973 0.50537,-0.55847 0.50537,-1.01624 0,-0.36254 -0.12268,-0.66284 -0.36804,-0.90088 -0.24536,-0.23803 -0.56214,-0.35705 -0.95032,-0.35705 -0.38452,0 -0.70495,0.12085 -0.9613,0.36254 -0.25635,0.24171 -0.42114,0.60426 -0.49438,1.08765 l -0.98877,-0.17578 c 0.12084,-0.66284 0.3955,-1.17645 0.82397,-1.54083 0.42847,-0.36438 0.9613,-0.54656 1.59851,-0.54657 0.43945,1e-5 0.84411,0.0943 1.21399,0.28289 0.36987,0.18861 0.65277,0.44587 0.84869,0.77179 0.19592,0.32594 0.29388,0.67201 0.29389,1.03821 -10e-6,0.34791 -0.0934,0.66468 -0.28015,0.95032 -0.18678,0.28565 -0.46326,0.5127 -0.82947,0.68115 0.47607,0.10987 0.84594,0.33784 1.10962,0.6839 0.26366,0.34607 0.3955,0.77912 0.39551,1.29913 -10e-6,0.70313 -0.25636,1.29914 -0.76905,1.78803 -0.5127,0.48889 -1.16089,0.73334 -1.94458,0.73334 -0.70679,0 -1.29364,-0.21057 -1.76056,-0.63172 -0.46692,-0.42114 -0.73333,-0.96679 -0.79925,-1.63696 z"
       style="font-size:75%;baseline-shift:sub"
       id="path3196" />
    <path
       d="m 275.22041,130.24535 1.4209,0.35888 c -0.29786,1.167 -0.83375,2.05689 -1.60766,2.66968 -0.77394,0.61279 -1.71998,0.91919 -2.83814,0.91919 -1.15723,0 -2.09839,-0.2356 -2.82349,-0.70679 -0.7251,-0.47119 -1.27685,-1.15356 -1.65527,-2.04712 -0.37842,-0.89355 -0.56763,-1.85302 -0.56763,-2.87841 0,-1.11816 0.21363,-2.0935 0.64087,-2.92603 0.42725,-0.83251 1.03516,-1.46483 1.82373,-1.89697 0.78857,-0.43212 1.65649,-0.64818 2.60376,-0.6482 1.07422,2e-5 1.97753,0.27345 2.70996,0.82032 0.73242,0.54688 1.24267,1.31592 1.53077,2.30713 l -1.39893,0.32959 c -0.24903,-0.78125 -0.61036,-1.35009 -1.08398,-1.70655 -0.47364,-0.35643 -1.06935,-0.53466 -1.78711,-0.53467 -0.8252,10e-6 -1.5149,0.19777 -2.0691,0.59327 -0.5542,0.39551 -0.9436,0.92652 -1.16821,1.59301 -0.22461,0.66651 -0.33691,1.35377 -0.33691,2.06177 0,0.91309 0.13305,1.71021 0.39917,2.39136 0.26611,0.68115 0.67993,1.19019 1.24145,1.5271 0.56152,0.33691 1.16943,0.50537 1.82373,0.50537 0.7959,0 1.46972,-0.22949 2.02149,-0.68848 0.55175,-0.45898 0.92528,-1.14013 1.1206,-2.04345 z"
       style="font-size:15px;fill:#000000;stroke-linecap:round;font-family:helvetica"
       id="path3198" />
    <path
       d="m 277.71797,130.78734 0,-1.32569 4.05029,0 0,1.32569 z"
       style="font-size:15px;fill:#000000;stroke-linecap:round;font-family:helvetica"
       id="path3200" />
    <path
       d="m 283.39424,134.00999 0,-10.7373 1.45752,0 5.63965,8.43018 0,-8.43018 1.3623,0 0,10.7373 -1.45752,0 -5.63964,-8.4375 0,8.4375 z"
       style="font-size:15px;fill:#000000;stroke-linecap:round;font-family:helvetica"
       id="path3202" />
    <path
       d="m 294.29268,134.00999 0,-10.7373 1.4209,0 0,4.40918 5.58105,0 0,-4.40918 1.4209,0 0,10.7373 -1.4209,0 0,-5.06103 -5.58105,0 0,5.06103 z"
       style="font-size:15px;fill:#000000;stroke-linecap:round;font-family:helvetica"
       id="path3204" />
  </g>
  <g
     style="font-size:17.5px;fill:#000000;stroke-linecap:round;font-family:helvetica"
     id="text48">
    <path
       d="m 400.38354,134.97485 0,-3.43506 -3.40942,0 0,-1.43554 3.40942,0 0,-3.40943 1.45264,0 0,3.40943 3.40943,0 0,1.43554 -3.40943,0 0,3.43506 z"
       style="font-size:17.5px;fill:#000000;stroke-linecap:round;font-family:helvetica"
       id="path3191" />
  </g>
  <g
     style="font-size:15px;fill:#000000;stroke-linecap:round;font-family:helvetica"
     id="text50">
    <path
       d="m 416.50116,134.99001 0,-10.73731 1.4209,0 0,4.40918 5.58105,0 0,-4.40918 1.4209,0 0,10.73731 -1.4209,0 0,-5.06104 -5.58105,0 0,5.06104 z"
       style="font-size:15px;fill:#000000;stroke-linecap:round;font-family:helvetica"
       id="path3178" />
    <path
       d="m 431.80328,137.03969 0,0.95032 -5.32287,0 c -0.007,-0.23804 0.0311,-0.46692 0.11535,-0.68665 0.1355,-0.36255 0.35248,-0.7196 0.65094,-1.07117 0.29846,-0.35156 0.72968,-0.75805 1.29364,-1.21948 0.87525,-0.71777 1.46668,-1.28631 1.7743,-1.70563 0.30761,-0.4193 0.46142,-0.81573 0.46142,-1.18927 0,-0.39184 -0.14008,-0.72234 -0.42023,-0.99151 -0.28015,-0.26916 -0.64545,-0.40374 -1.09588,-0.40375 -0.47608,10e-6 -0.85694,0.14283 -1.14258,0.42847 -0.28565,0.28565 -0.4303,0.68115 -0.43396,1.18652 l -1.01623,-0.10437 c 0.0696,-0.75805 0.33142,-1.33575 0.78552,-1.73309 0.4541,-0.39733 1.06384,-0.596 1.82922,-0.59601 0.7727,1e-5 1.38427,0.21424 1.83472,0.6427 0.45043,0.42847 0.67565,0.95948 0.67566,1.59302 -1e-5,0.32227 -0.0659,0.63904 -0.19776,0.95031 -0.13184,0.31129 -0.35065,0.63905 -0.65643,0.98328 -0.30579,0.34424 -0.81391,0.81665 -1.52435,1.41724 -0.59327,0.49804 -0.97413,0.83587 -1.14258,1.01348 -0.16846,0.17762 -0.30762,0.35615 -0.41748,0.53559 z"
       style="font-size:75%;baseline-shift:sub"
       id="path3180" />
    <path
       d="m 433.54462,134.99001 0,-10.73731 1.45752,0 5.63964,8.43018 0,-8.43018 1.36231,0 0,10.73731 -1.45752,0 -5.63965,-8.4375 0,8.4375 z"
       style="font-size:15px;fill:#000000;stroke-linecap:round;font-family:helvetica"
       id="path3182" />
    <path
       d="m 443.71796,131.76735 0,-1.32568 4.05029,0 0,1.32568 z"
       style="font-size:15px;fill:#000000;stroke-linecap:round;font-family:helvetica"
       id="path3184" />
    <path
       d="m 457.07001,131.22536 1.4209,0.35888 c -0.29787,1.167 -0.83375,2.05689 -1.60767,2.66968 -0.77393,0.61279 -1.71998,0.91919 -2.83814,0.91919 -1.15723,0 -2.09839,-0.23559 -2.82348,-0.70679 -0.7251,-0.47119 -1.27686,-1.15356 -1.65527,-2.04712 -0.37842,-0.89355 -0.56763,-1.85302 -0.56763,-2.87841 0,-1.11816 0.21362,-2.0935 0.64087,-2.92603 0.42724,-0.83251 1.03515,-1.46483 1.82373,-1.89697 0.78857,-0.43212 1.65649,-0.64818 2.60376,-0.64819 1.07421,1e-5 1.97753,0.27344 2.70996,0.82031 0.73241,0.54688 1.24266,1.31592 1.53076,2.30713 l -1.39893,0.32959 c -0.24903,-0.78125 -0.61036,-1.35009 -1.08398,-1.70655 -0.47364,-0.35643 -1.06934,-0.53465 -1.78711,-0.53466 -0.8252,1e-5 -1.5149,0.19776 -2.06909,0.59326 -0.5542,0.39551 -0.94361,0.92652 -1.16821,1.59301 -0.22462,0.66652 -0.33692,1.35377 -0.33692,2.06177 0,0.91309 0.13306,1.71021 0.39917,2.39136 0.26611,0.68115 0.67993,1.19019 1.24146,1.5271 0.56152,0.33691 1.16943,0.50537 1.82373,0.50537 0.79589,0 1.46972,-0.22949 2.02148,-0.68848 0.55175,-0.45898 0.92529,-1.14013 1.12061,-2.04345 z"
       style="font-size:15px;fill:#000000;stroke-linecap:round;font-family:helvetica"
       id="path3186" />
    <path
       d="m 460.23407,134.99001 0,-10.73731 1.45752,0 5.63965,8.43018 0,-8.43018 1.3623,0 0,10.73731 -1.45752,0 -5.63965,-8.4375 0,8.4375 z"
       style="font-size:15px;fill:#000000;stroke-linecap:round;font-family:helvetica"
       id="path3188" />
  </g>
  <path
     style="font-size:15px;fill:none;stroke:#000000;stroke-width:1;stroke-linecap:round;font-family:Helvetica"
     d="m 482.1,131.79 34.29,0"
     id="polyline54" />
  <path
     style="font-size:15px;fill:#000000;fill-rule:evenodd;stroke:#000000;stroke-width:1;stroke-linecap:round;font-family:Helvetica"
     d="m 516.39,131.79 -2,3 10,-3 -10,-3 z"
     id="polygon56" />
  <path
     style="font-size:15px;stroke:#000000;stroke-width:1;stroke-linecap:round;font-family:Helvetica"
     d="M 579,130.74001 564,122.08"
     id="line60" />
  <path
     style="font-size:15px;stroke:#000000;stroke-width:1;stroke-linecap:round;font-family:Helvetica"
     d="m 581,127.28 -15,-8.66"
     id="line62" />
  <path
     style="font-size:15px;stroke:#000000;stroke-width:1;stroke-linecap:round;font-family:Helvetica"
     d="M 580,129.00999 595,120.34"
     id="line66" />
  <path
     style="font-size:15px;stroke:#000000;stroke-width:1;stroke-linecap:round;font-family:Helvetica"
     d="M 580,129.00999 580,145"
     id="line70" />
  <path
     style="font-size:15px;stroke:#000000;stroke-width:1;stroke-linecap:round;font-family:Helvetica"
     d="M 625.79999,129.00999 641,120.23"
     id="line74" />
  <path
     style="font-size:15px;stroke:#000000;stroke-width:1;stroke-linecap:round;font-family:Helvetica"
     d="m 610,119.9 15.79999,9.10999"
     id="line78" />
  <path
     style="font-size:15px;stroke:#000000;stroke-width:1;stroke-linecap:butt;font-family:Helvetica"
     d="m 602.87,106 0,-9"
     id="line82" />
  <g
     style="font-size:15px;fill:#000000;stroke-linecap:round;font-family:helvetica"
     id="text84">
    <path
       d="m 574.44257,158.44 0,-10.7373 1.45752,0 5.63964,8.43017 0,-8.43017 1.36231,0 0,10.7373 -1.45752,0 -5.63965,-8.4375 0,8.4375 z"
       style="font-size:15px;fill:#000000;stroke-linecap:round;font-family:helvetica"
       id="path3162" />
    <path
       d="m 585.341,158.44 0,-10.7373 1.4209,0 0,4.40918 5.58106,0 0,-4.40918 1.42089,0 0,10.7373 -1.42089,0 0,-5.06103 -5.58106,0 0,5.06103 z"
       style="font-size:15px;fill:#000000;stroke-linecap:round;font-family:helvetica"
       id="path3164" />
    <path
       d="m 600.64313,160.48969 0,0.95031 -5.32288,0 c -0.007,-0.23803 0.0311,-0.46692 0.11536,-0.68664 0.1355,-0.36255 0.35248,-0.71961 0.65094,-1.07117 0.29846,-0.35156 0.72967,-0.75805 1.29364,-1.21948 0.87524,-0.71777 1.46667,-1.28631 1.77429,-1.70563 0.30761,-0.41931 0.46142,-0.81573 0.46143,-1.18927 -10e-6,-0.39184 -0.14008,-0.72234 -0.42023,-0.99152 -0.28016,-0.26915 -0.64545,-0.40374 -1.09589,-0.40374 -0.47607,0 -0.85693,0.14283 -1.14258,0.42846 -0.28564,0.28565 -0.4303,0.68116 -0.43396,1.18653 l -1.01623,-0.10437 c 0.0696,-0.75805 0.33142,-1.33575 0.78552,-1.7331 0.4541,-0.39733 1.06384,-0.596 1.82923,-0.59601 0.7727,1e-5 1.38427,0.21425 1.83471,0.64271 0.45044,0.42847 0.67566,0.95947 0.67566,1.59301 0,0.32227 -0.0659,0.63905 -0.19775,0.95032 -0.13184,0.31128 -0.35065,0.63904 -0.65644,0.98328 -0.30579,0.34424 -0.8139,0.81665 -1.52435,1.41723 -0.59326,0.49805 -0.97412,0.83588 -1.14258,1.01349 -0.16846,0.17762 -0.30762,0.35614 -0.41748,0.53559 z"
       style="font-size:75%;baseline-shift:sub"
       id="path3166" />
  </g>
  <g
     style="font-size:15px;fill:#000000;stroke-linecap:round;font-family:helvetica"
     id="text88">
    <path
       d="m 651.11835,115.02535 1.4209,0.35889 c -0.29787,1.16699 -0.83375,2.05689 -1.60767,2.66968 -0.77393,0.61279 -1.71998,0.91919 -2.83814,0.91919 -1.15723,0 -2.09839,-0.2356 -2.82348,-0.70679 -0.7251,-0.47119 -1.27686,-1.15356 -1.65527,-2.04712 -0.37842,-0.89355 -0.56763,-1.85302 -0.56763,-2.87842 0,-1.11816 0.21362,-2.0935 0.64087,-2.92602 0.42724,-0.83251 1.03515,-1.46484 1.82373,-1.89698 0.78857,-0.43211 1.65649,-0.64818 2.60376,-0.64819 1.07421,1e-5 1.97753,0.27345 2.70996,0.82031 0.73241,0.54689 1.24266,1.31593 1.53076,2.30713 l -1.39893,0.32959 c -0.24903,-0.78124 -0.61036,-1.35009 -1.08398,-1.70654 -0.47364,-0.35644 -1.06934,-0.53466 -1.78711,-0.53467 -0.8252,1e-5 -1.5149,0.19776 -2.06909,0.59326 -0.5542,0.39552 -0.94361,0.92652 -1.16821,1.59302 -0.22462,0.66651 -0.33692,1.35377 -0.33692,2.06177 0,0.91309 0.13306,1.71021 0.39917,2.39136 0.26611,0.68115 0.67993,1.19018 1.24146,1.52709 0.56152,0.33692 1.16943,0.50538 1.82373,0.50538 0.79589,0 1.46972,-0.22949 2.02148,-0.68848 0.55175,-0.45898 0.92529,-1.14013 1.12061,-2.04346 z"
       style="font-size:15px;fill:#000000;stroke-linecap:round;font-family:helvetica"
       id="path3153" />
    <path
       d="m 653.86493,113.56051 c 0,-1.78222 0.47851,-3.17748 1.43555,-4.18579 0.95702,-1.00829 2.19237,-1.51244 3.70605,-1.51245 0.9912,1e-5 1.88476,0.23682 2.68066,0.71045 0.79589,0.47364 1.40258,1.13404 1.82007,1.9812 0.41747,0.84717 0.62621,1.80786 0.62622,2.88208 -10e-6,1.08887 -0.21973,2.06299 -0.65918,2.92236 -0.43946,0.85938 -1.06202,1.51001 -1.86767,1.9519 -0.80567,0.4419 -1.67481,0.66285 -2.60742,0.66285 -1.01075,0 -1.91407,-0.24414 -2.70996,-0.73243 -0.79591,-0.48828 -1.39893,-1.15478 -1.80909,-1.99951 -0.41015,-0.84472 -0.61523,-1.73827 -0.61523,-2.68066 z m 1.46484,0.022 c 0,1.29395 0.3479,2.31324 1.0437,3.05786 0.6958,0.74463 1.5686,1.11695 2.61841,1.11695 1.06933,0 1.94946,-0.37598 2.64038,-1.12793 0.69091,-0.75195 1.03637,-1.81885 1.03638,-3.20069 -10e-6,-0.87401 -0.14771,-1.63695 -0.44312,-2.28882 -0.29541,-0.65184 -0.72754,-1.15721 -1.29638,-1.51611 -0.56886,-0.35888 -1.20728,-0.53832 -1.91529,-0.53833 -1.00586,1e-5 -1.87134,0.34547 -2.59643,1.03638 -0.7251,0.69092 -1.08765,1.84449 -1.08765,3.46069 z"
       style="font-size:15px;fill:#000000;stroke-linecap:round;font-family:helvetica"
       id="path3155" />
    <path
       d="m 665.52509,113.56051 c -10e-6,-1.78222 0.47851,-3.17748 1.43554,-4.18579 0.95703,-1.00829 2.19238,-1.51244 3.70606,-1.51245 0.9912,1e-5 1.88475,0.23682 2.68066,0.71045 0.79589,0.47364 1.40258,1.13404 1.82007,1.9812 0.41747,0.84717 0.62621,1.80786 0.62622,2.88208 -10e-6,1.08887 -0.21974,2.06299 -0.65918,2.92236 -0.43946,0.85938 -1.06202,1.51001 -1.86768,1.9519 -0.80567,0.4419 -1.67481,0.66285 -2.60742,0.66285 -1.01074,0 -1.91406,-0.24414 -2.70996,-0.73243 -0.7959,-0.48828 -1.39893,-1.15478 -1.80908,-1.99951 -0.41016,-0.84472 -0.61524,-1.73827 -0.61523,-2.68066 z m 1.46484,0.022 c 0,1.29395 0.3479,2.31324 1.0437,3.05786 0.6958,0.74463 1.5686,1.11695 2.61841,1.11695 1.06933,0 1.94945,-0.37598 2.64038,-1.12793 0.69091,-0.75195 1.03637,-1.81885 1.03638,-3.20069 -10e-6,-0.87401 -0.14772,-1.63695 -0.44312,-2.28882 -0.29542,-0.65184 -0.72755,-1.15721 -1.29639,-1.51611 -0.56885,-0.35888 -1.20728,-0.53832 -1.91528,-0.53833 -1.00586,1e-5 -1.87134,0.34547 -2.59643,1.03638 -0.7251,0.69092 -1.08765,1.84449 -1.08765,3.46069 z"
       style="font-size:15px;fill:#000000;stroke-linecap:round;font-family:helvetica"
       id="path3157" />
    <path
       d="m 677.66132,118.79 0,-10.7373 1.42089,0 0,4.40918 5.58106,0 0,-4.40918 1.4209,0 0,10.7373 -1.4209,0 0,-5.06103 -5.58106,0 0,5.06103 z"
       style="font-size:15px;fill:#000000;stroke-linecap:round;font-family:helvetica"
       id="path3159" />
  </g>
  <g
     style="font-size:15px;fill:#000000;stroke-linecap:round;font-family:helvetica"
     id="text90">
    <path
       d="m 541.50116,118.79 0,-10.7373 1.4209,0 0,4.40918 5.58105,0 0,-4.40918 1.4209,0 0,10.7373 -1.4209,0 0,-5.06103 -5.58105,0 0,5.06103 z"
       style="font-size:15px;fill:#000000;stroke-linecap:round;font-family:helvetica"
       id="path3148" />
    <path
       d="m 552.28241,118.79 0,-10.7373 1.45752,0 5.63965,8.43017 0,-8.43017 1.3623,0 0,10.7373 -1.45752,0 -5.63965,-8.4375 0,8.4375 z"
       style="font-size:15px;fill:#000000;stroke-linecap:round;font-family:helvetica"
       id="path3150" />
  </g>
  <g
     style="font-size:15px;fill:#000000;stroke-linecap:round;font-family:helvetica"
     id="text92">
    <path
       d="m 597.44257,118.79 0,-10.7373 1.45752,0 5.63964,8.43017 0,-8.43017 1.36231,0 0,10.7373 -1.45752,0 -5.63965,-8.4375 0,8.4375 z"
       style="font-size:15px;fill:#000000;stroke-linecap:round;font-family:helvetica"
       id="path3145" />
  </g>
  <g
     style="font-size:15px;fill:#000000;stroke-linecap:round;font-family:helvetica"
     id="text94">
    <path
       d="m 578.50116,92.360001 0,-10.737305 1.4209,0 0,4.40918 5.58105,0 0,-4.40918 1.4209,0 0,10.737305 -1.4209,0 0,-5.061036 -5.58105,0 0,5.061036 z"
       style="font-size:15px;fill:#000000;stroke-linecap:round;font-family:helvetica"
       id="path3138" />
    <path
       d="m 588.61224,93.234146 0.98877,-0.131836 c 0.11353,0.560305 0.3067,0.964052 0.57953,1.211243 0.27283,0.247193 0.60516,0.370789 0.99701,0.370788 0.46509,10e-7 0.85785,-0.161132 1.17828,-0.483398 0.32043,-0.322264 0.48065,-0.721434 0.48066,-1.19751 -10e-6,-0.454099 -0.14832,-0.828549 -0.44495,-1.123352 -0.29663,-0.294796 -0.67383,-0.442196 -1.13159,-0.4422 -0.18677,4e-6 -0.41932,0.03663 -0.69763,0.109864 l 0.10986,-0.86792 c 0.0659,0.0073 0.11902,0.01099 0.1593,0.01099 0.42114,5e-6 0.80017,-0.109858 1.13709,-0.32959 0.33691,-0.219721 0.50536,-0.558466 0.50537,-1.016235 -10e-6,-0.362542 -0.12269,-0.662835 -0.36804,-0.900879 -0.24537,-0.23803 -0.56214,-0.357048 -0.95032,-0.357056 -0.38453,8e-6 -0.70496,0.120857 -0.96131,0.362549 -0.25634,0.241706 -0.42114,0.604255 -0.49438,1.087647 l -0.98877,-0.175782 c 0.12085,-0.662835 0.39551,-1.176445 0.82398,-1.540832 0.42846,-0.364372 0.9613,-0.546562 1.59851,-0.54657 0.43945,8e-6 0.84411,0.09431 1.21399,0.282898 0.36986,0.188606 0.65276,0.445869 0.84869,0.77179 0.19592,0.325934 0.29388,0.672003 0.29388,1.038208 0,0.347906 -0.0934,0.664678 -0.28015,0.950317 -0.18677,0.285649 -0.46326,0.5127 -0.82947,0.681152 0.47607,0.109868 0.84595,0.337834 1.10962,0.683899 0.26367,0.346073 0.39551,0.779117 0.39551,1.299134 0,0.703126 -0.25635,1.299134 -0.76904,1.788024 -0.5127,0.488892 -1.16089,0.733338 -1.94458,0.733338 -0.70679,0 -1.29364,-0.210571 -1.76056,-0.631714 -0.46692,-0.421142 -0.73334,-0.966795 -0.79926,-1.636963 z"
       style="font-size:75%;baseline-shift:sub"
       id="path3140" />
    <path
       d="m 603.2204,88.595352 1.4209,0.358887 c -0.29787,1.166994 -0.83375,2.056886 -1.60767,2.669678 -0.77393,0.612793 -1.71998,0.919189 -2.83813,0.919189 -1.15724,0 -2.0984,-0.235596 -2.82349,-0.706787 -0.7251,-0.47119 -1.27686,-1.153563 -1.65527,-2.047119 -0.37842,-0.893551 -0.56763,-1.853023 -0.56763,-2.878418 0,-1.118158 0.21362,-2.093498 0.64087,-2.926026 0.42724,-0.83251 1.03515,-1.464833 1.82373,-1.896972 0.78857,-0.432118 1.65649,-0.648183 2.60376,-0.648194 1.07421,1.1e-5 1.97753,0.273449 2.70996,0.820313 0.73241,0.546885 1.24267,1.315927 1.53076,2.307129 l -1.39892,0.32959 c -0.24904,-0.781242 -0.61036,-1.350089 -1.08399,-1.706543 -0.47364,-0.356436 -1.06934,-0.534659 -1.78711,-0.534668 -0.8252,9e-6 -1.5149,0.197763 -2.06909,0.593261 -0.5542,0.395517 -0.94361,0.926522 -1.16821,1.593018 -0.22461,0.666511 -0.33692,1.353766 -0.33692,2.061768 0,0.91309 0.13306,1.710208 0.39917,2.391357 0.26611,0.681155 0.67993,1.190187 1.24146,1.5271 0.56152,0.336915 1.16943,0.505372 1.82373,0.505371 0.79589,10e-7 1.46972,-0.229491 2.02148,-0.688477 0.55175,-0.458982 0.92529,-1.140134 1.12061,-2.043457 z"
       style="font-size:15px;fill:#000000;stroke-linecap:round;font-family:helvetica"
       id="path3142" />
  </g>
  <cdml:cdml
     version="0.15">
    <cdml:info>
      <cdml:author_program
         version="0.13.0">BKchem</cdml:author_program>
    </cdml:info>
    <cdml:paper
       crop_margin="10"
       crop_svg="0"
       orientation="portrait"
       replace_minus="0"
       type="A4"
       use_real_minus="0" />
    <cdml:viewport
       viewport="0.000000 0.000000 640.000000 480.000000" />
    <cdml:standard
       area_color=""
       font_family="helvetica"
       font_size="12"
       line_color="#000"
       line_width="1px"
       paper_crop_margin="10"
       paper_crop_svg="0"
       paper_orientation="portrait"
       paper_type="A4">
      <cdml:bond
         double-ratio="0.75"
         length="0.7cm"
         wedge-width="5px"
         width="6px" />
      <cdml:arrow
         length="1.6cm" />
      <cdml:atom
         show_hydrogens="0" />
    </cdml:standard>
    <cdml:molecule
       id="molecule25394"
       name="">
      <cdml:atom
         id="atom19013"
         name="C"
         valency="4">
        <cdml:point
           x="3.122cm"
           y="3.385cm" />
      </cdml:atom>
      <cdml:atom
         id="atom11696"
         name="C"
         valency="4">
        <cdml:point
           x="3.728cm"
           y="3.735cm" />
      </cdml:atom>
      <cdml:atom
         hydrogens="on"
         id="atom58568"
         name="O"
         pos="center-first"
         valency="2">
        <cdml:point
           x="4.335cm"
           y="3.385cm" />
      </cdml:atom>
      <cdml:text
         id="atom83581"
         pos="center-last">
        <cdml:ftext>H<cdml:sub>3</cdml:sub>
C-NH</cdml:ftext>
        <cdml:point
           x="2.516cm"
           y="3.735cm" />
      </cdml:text>
      <cdml:bond
         double_ratio="0.75"
         end="atom19013"
         id="bond7967"
         line_width="1.0"
         start="atom83581"
         type="n1" />
      <cdml:bond
         double_ratio="0.75"
         end="atom11696"
         id="bond47680"
         line_width="1.0"
         start="atom19013"
         type="n1" />
      <cdml:bond
         double_ratio="0.75"
         end="atom58568"
         id="bond45680"
         line_width="1.0"
         start="atom11696"
         type="n1" />
    </cdml:molecule>
    <cdml:arrow
       color="#000"
       end="yes"
       id="arrow42747"
       shape="(8, 10, 3)"
       spline="no"
       start="no"
       type="normal"
       width="1.0">
      <cdml:point
         x="5.164cm"
         y="3.469cm" />
      <cdml:point
         x="6.396cm"
         y="3.469cm" />
    </cdml:arrow>
    <cdml:molecule
       id="molecule99850"
       name="">
      <cdml:text
         id="atom39074"
         pos="center-first">
        <cdml:ftext>O<cdml:sub>2</cdml:sub>
</cdml:ftext>
        <cdml:point
           x="5.694cm"
           y="2.993cm" />
      </cdml:text>
    </cdml:molecule>
    <cdml:text
       id="text28727">
      <cdml:point
         x="5.377cm"
         y="3.946cm" />
      <cdml:ftext>Cu/Ni</cdml:ftext>
    </cdml:text>
    <cdml:molecule
       id="molecule68443"
       name="">
      <cdml:group
         group-type="builtin"
         id="atom32970"
         name="COOH"
         pos="center-first">
        <cdml:point
           x="9.210cm"
           y="3.470cm" />
      </cdml:group>
      <cdml:atom
         id="atom91367"
         name="C"
         valency="4">
        <cdml:point
           x="8.604cm"
           y="3.120cm" />
      </cdml:atom>
      <cdml:text
         id="atom99204"
         pos="center-last">
        <cdml:ftext>H<cdml:sub>3</cdml:sub>
C-NH</cdml:ftext>
        <cdml:point
           x="7.998cm"
           y="3.470cm" />
      </cdml:text>
      <cdml:bond
         double_ratio="0.75"
         end="atom91367"
         id="bond90685"
         line_width="1.0"
         start="atom99204"
         type="n1" />
      <cdml:bond
         double_ratio="0.75"
         end="atom32970"
         id="bond58841"
         line_width="1.0"
         start="atom91367"
         type="n1" />
    </cdml:molecule>
    <cdml:plus
       background-color=""
       font_size="14"
       id="plus26429">
      <cdml:point
         x="10.647cm"
         y="3.496cm" />
    </cdml:plus>
    <cdml:molecule
       id="molecule19178"
       name="">
      <cdml:text
         id="atom44276"
         pos="center-first">
        <cdml:ftext>H<cdml:sub>2</cdml:sub>
N-CN</cdml:ftext>
        <cdml:point
           x="11.176cm"
           y="3.496cm" />
      </cdml:text>
    </cdml:molecule>
    <cdml:arrow
       color="#000"
       end="yes"
       id="arrow28266"
       shape="(8, 10, 3)"
       spline="no"
       start="no"
       type="normal"
       width="1.0">
      <cdml:point
         x="12.768cm"
         y="3.490cm" />
      <cdml:point
         x="13.888cm"
         y="3.490cm" />
    </cdml:arrow>
    <cdml:molecule
       id="molecule31432"
       name="">
      <cdml:text
         id="atom33021"
         pos="center-first">
        <cdml:ftext>NH<cdml:sub>2</cdml:sub>
</cdml:ftext>
        <cdml:point
           x="15.361cm"
           y="4.117cm" />
      </cdml:text>
      <cdml:group
         group-type="builtin"
         id="atom1284"
         name="COOH"
         pos="center-first">
        <cdml:point
           x="17.180cm"
           y="3.067cm" />
      </cdml:group>
      <cdml:atom
         id="atom35729"
         name="C"
         valency="4">
        <cdml:point
           x="15.361cm"
           y="3.417cm" />
      </cdml:atom>
      <cdml:atom
         id="atom27250"
         name="C"
         valency="4">
        <cdml:point
           x="16.574cm"
           y="3.417cm" />
      </cdml:atom>
      <cdml:atom
         hydrogens="on"
         id="atom59731"
         name="N"
         pos="center-last"
         valency="3">
        <cdml:point
           x="14.755cm"
           y="3.067cm" />
      </cdml:atom>
      <cdml:atom
         id="atom58402"
         name="N"
         pos="center-first"
         valency="3">
        <cdml:point
           x="15.967cm"
           y="3.067cm" />
      </cdml:atom>
      <cdml:text
         id="atom29860"
         pos="center-last">
        <cdml:ftext>H<cdml:sub>3</cdml:sub>
C</cdml:ftext>
        <cdml:point
           x="15.967cm"
           y="2.367cm" />
      </cdml:text>
      <cdml:bond
         bond_width="6.0"
         center="yes"
         double_ratio="0.75"
         end="atom59731"
         id="bond153"
         line_width="1.0"
         start="atom35729"
         type="n2" />
      <cdml:bond
         double_ratio="0.75"
         end="atom58402"
         id="bond39853"
         line_width="1.0"
         start="atom35729"
         type="n1" />
      <cdml:bond
         double_ratio="0.75"
         end="atom33021"
         id="bond12290"
         line_width="1.0"
         start="atom35729"
         type="n1" />
      <cdml:bond
         double_ratio="0.75"
         end="atom1284"
         id="bond2102"
         line_width="1.0"
         start="atom27250"
         type="n1" />
      <cdml:bond
         double_ratio="0.75"
         end="atom27250"
         id="bond43549"
         line_width="1.0"
         start="atom58402"
         type="n1" />
      <cdml:bond
         double_ratio="0.75"
         end="atom29860"
         id="bond95073"
         line_width="1.0"
         start="atom58402"
         type="n1" />
    </cdml:molecule>
  </cdml:cdml>
</svg>
