<?xml version="1.0" encoding="utf-8"?>
<!-- Generator: Adobe Illustrator 15.1.0, SVG Export Plug-In . SVG Version: 6.00 Build 0)  -->
<!DOCTYPE svg PUBLIC "-//W3C//DTD SVG 1.1//EN" "http://www.w3.org/Graphics/SVG/1.1/DTD/svg11.dtd">
<svg version="1.1" id="Layer_1" xmlns="http://www.w3.org/2000/svg" xmlns:xlink="http://www.w3.org/1999/xlink" x="0px" y="0px"
	 width="248.333px" height="322px" viewBox="0 0 248.333 322" enable-background="new 0 0 248.333 322" xml:space="preserve">
<symbol  id="Deleted_Symbol" viewBox="-6.02 -6.716 12.039 13.43">
	<g>
		<g>
			<path fill="#C27514" d="M-1.531-2.149c-2.272,0-3.568,2.499-4.175,4.136C-5.833,1.56-5.925,1.111-5.975,0.65
				c-0.402-3.691,1.949-6.975,5.25-7.334c3.302-0.36,6.304,2.342,6.707,6.033c0.037,0.348,0.043,0.689,0.034,1.027
				C4.09-1.716,1.281-2.149-1.531-2.149z"/>
		</g>
		<g>
			<path fill="#F7941E" d="M-1.531-2.149c2.812,0,5.621,0.434,7.547,2.526C5.924,3.629,3.722,6.358,0.73,6.683
				C-2.158,6.996-4.817,4.97-5.707,1.986C-5.1,0.35-3.803-2.149-1.531-2.149z"/>
		</g>
	</g>
	<path fill="#FFFFFF" d="M2.767,4.299c0-0.679-1.031-1.229-2.302-1.229c-1.272,0-2.303,0.55-2.303,1.229
		c0,0.678,1.031,1.228,2.303,1.228C1.736,5.526,2.767,4.977,2.767,4.299z"/>
	<path fill="#FFDB78" d="M-0.61,1.842c0-0.678-0.619-1.228-1.381-1.228c-0.763,0-1.382,0.55-1.382,1.228
		c0,0.679,0.619,1.229,1.382,1.229C-1.229,3.07-0.61,2.521-0.61,1.842z"/>
</symbol>
<g>
	<g>
		<path fill="none" stroke="#58595B" stroke-width="3" stroke-miterlimit="10" d="M33.188,152c0,0,46.148,0,92.358,0
			c46.333,0,92.728,0,92.728,0"/>
		<path fill="none" stroke="#ED1C24" stroke-width="3" stroke-miterlimit="10" d="M206.38,162c5.025,0,7.895,0,7.895,0"/>
		<path fill="none" stroke="#A5B8D3" stroke-width="3" stroke-miterlimit="10" d="M125.546,162c34.81,0,65.654,0,80.833,0"/>
		<path fill="none" stroke="#808285" stroke-width="3" stroke-miterlimit="10" d="M33.188,162c0,0,46.148,0,92.358,0"/>
	</g>
	<g>
		<path fill="none" stroke="#58595B" stroke-width="3" stroke-miterlimit="10" d="M218.274,195.5c0,0-46.147,0-92.357,0
			c-46.333,0-92.729,0-92.729,0"/>
		<path fill="none" stroke="#ED1C24" stroke-width="3" stroke-miterlimit="10" d="M45.083,185.5c-5.025,0-7.895,0-7.895,0"/>
		<path fill="none" stroke="#A5B8D3" stroke-width="3" stroke-miterlimit="10" d="M125.917,185.5c-34.81,0-65.654,0-80.834,0"/>
		<path fill="none" stroke="#808285" stroke-width="3" stroke-miterlimit="10" d="M218.274,185.5c0,0-46.147,0-92.357,0"/>
	</g>
	<g>
		<path d="M222.934,152.667c0.25,0.15,0.819,0.4,1.439,0.4c1.12,0,1.479-0.709,1.469-1.259c-0.01-0.91-0.83-1.299-1.679-1.299h-0.49
			v-0.66h0.49c0.64,0,1.449-0.33,1.449-1.1c0-0.52-0.33-0.979-1.14-0.979c-0.52,0-1.02,0.23-1.299,0.43l-0.24-0.64
			c0.35-0.25,1.009-0.5,1.709-0.5c1.279,0,1.859,0.76,1.859,1.549c0,0.68-0.41,1.249-1.199,1.539v0.02
			c0.8,0.15,1.439,0.75,1.449,1.659c0,1.04-0.819,1.949-2.369,1.949c-0.729,0-1.369-0.23-1.689-0.439L222.934,152.667z"/>
		<path d="M229.233,146.75c-0.23,0.839-0.66,1.919-0.93,2.378l-0.56,0.06c0.21-0.59,0.479-1.619,0.59-2.339L229.233,146.75z"/>
	</g>
	<g>
		<path d="M22.601,163.333c0.25,0.15,0.819,0.4,1.439,0.4c1.12,0,1.479-0.709,1.469-1.259c-0.01-0.91-0.83-1.299-1.679-1.299h-0.49
			v-0.66h0.49c0.64,0,1.449-0.33,1.449-1.1c0-0.52-0.33-0.979-1.14-0.979c-0.52,0-1.02,0.23-1.299,0.43l-0.24-0.64
			c0.35-0.25,1.009-0.5,1.709-0.5c1.279,0,1.859,0.76,1.859,1.549c0,0.68-0.41,1.249-1.199,1.539v0.02
			c0.8,0.15,1.439,0.75,1.449,1.659c0,1.04-0.819,1.949-2.369,1.949c-0.729,0-1.369-0.23-1.689-0.439L22.601,163.333z"/>
		<path d="M28.9,157.417c-0.23,0.839-0.66,1.919-0.93,2.378l-0.56,0.06c0.21-0.59,0.479-1.619,0.59-2.339L28.9,157.417z"/>
	</g>
	<g>
		<path d="M22.601,198c0.25,0.15,0.819,0.4,1.439,0.4c1.12,0,1.479-0.709,1.469-1.259c-0.01-0.91-0.83-1.299-1.679-1.299h-0.49
			v-0.66h0.49c0.64,0,1.449-0.33,1.449-1.1c0-0.52-0.33-0.979-1.14-0.979c-0.52,0-1.02,0.23-1.299,0.43l-0.24-0.64
			c0.35-0.25,1.009-0.5,1.709-0.5c1.279,0,1.859,0.76,1.859,1.549c0,0.68-0.41,1.249-1.199,1.539v0.02
			c0.8,0.15,1.439,0.75,1.449,1.659c0,1.04-0.819,1.949-2.369,1.949c-0.729,0-1.369-0.23-1.689-0.439L22.601,198z"/>
		<path d="M28.9,192.083c-0.23,0.839-0.66,1.919-0.93,2.378l-0.56,0.06c0.21-0.59,0.479-1.619,0.59-2.339L28.9,192.083z"/>
	</g>
	<g>
		<path d="M222.934,185.333c0.25,0.15,0.819,0.4,1.439,0.4c1.12,0,1.479-0.709,1.469-1.259c-0.01-0.91-0.83-1.299-1.679-1.299h-0.49
			v-0.66h0.49c0.64,0,1.449-0.33,1.449-1.1c0-0.52-0.33-0.979-1.14-0.979c-0.52,0-1.02,0.23-1.299,0.43l-0.24-0.64
			c0.35-0.25,1.009-0.5,1.709-0.5c1.279,0,1.859,0.76,1.859,1.549c0,0.68-0.41,1.249-1.199,1.539v0.02
			c0.8,0.15,1.439,0.75,1.449,1.659c0,1.04-0.819,1.949-2.369,1.949c-0.729,0-1.369-0.23-1.689-0.439L222.934,185.333z"/>
		<path d="M229.233,179.417c-0.23,0.839-0.66,1.919-0.93,2.378l-0.56,0.06c0.21-0.59,0.479-1.619,0.59-2.339L229.233,179.417z"/>
	</g>
	<g>
		<path d="M226.602,158.91h-2.479l-0.25,1.669c0.15-0.02,0.29-0.03,0.53-0.03c0.51,0,1,0.1,1.399,0.35
			c0.51,0.28,0.93,0.85,0.93,1.659c0,1.27-1.009,2.219-2.418,2.219c-0.71,0-1.299-0.2-1.619-0.4l0.22-0.669
			c0.27,0.16,0.8,0.36,1.399,0.36c0.819,0,1.539-0.54,1.529-1.409c0-0.84-0.569-1.429-1.859-1.429c-0.38,0-0.669,0.03-0.909,0.06
			l0.419-3.119h3.108V158.91z"/>
		<path d="M229.233,157.751c-0.23,0.839-0.66,1.919-0.93,2.378l-0.56,0.06c0.21-0.59,0.479-1.619,0.59-2.339L229.233,157.751z"/>
	</g>
	<g>
		<path d="M26.269,147.077h-2.479l-0.25,1.669c0.15-0.02,0.29-0.03,0.53-0.03c0.51,0,1,0.1,1.399,0.35
			c0.51,0.28,0.93,0.85,0.93,1.659c0,1.27-1.009,2.219-2.418,2.219c-0.71,0-1.299-0.2-1.619-0.4l0.22-0.669
			c0.27,0.16,0.8,0.36,1.399,0.36c0.819,0,1.539-0.54,1.529-1.409c0-0.84-0.569-1.429-1.859-1.429c-0.38,0-0.669,0.03-0.909,0.06
			l0.419-3.119h3.108V147.077z"/>
		<path d="M28.9,145.917c-0.23,0.839-0.66,1.919-0.93,2.378l-0.56,0.06c0.21-0.59,0.479-1.619,0.59-2.339L28.9,145.917z"/>
	</g>
	<g>
		<path d="M226.602,192.91h-2.479l-0.25,1.669c0.15-0.02,0.29-0.03,0.53-0.03c0.51,0,1,0.1,1.399,0.35
			c0.51,0.28,0.93,0.85,0.93,1.659c0,1.27-1.009,2.219-2.418,2.219c-0.71,0-1.299-0.2-1.619-0.4l0.22-0.669
			c0.27,0.16,0.8,0.36,1.399,0.36c0.819,0,1.539-0.54,1.529-1.409c0-0.84-0.569-1.429-1.859-1.429c-0.38,0-0.669,0.03-0.909,0.06
			l0.419-3.119h3.108V192.91z"/>
		<path d="M229.233,191.75c-0.23,0.839-0.66,1.919-0.93,2.378l-0.56,0.06c0.21-0.59,0.479-1.619,0.59-2.339L229.233,191.75z"/>
	</g>
	<g>
		<path d="M26.269,180.243h-2.479l-0.25,1.669c0.15-0.02,0.29-0.03,0.53-0.03c0.51,0,1,0.1,1.399,0.35
			c0.51,0.28,0.93,0.85,0.93,1.659c0,1.27-1.009,2.219-2.418,2.219c-0.71,0-1.299-0.2-1.619-0.4l0.22-0.669
			c0.27,0.16,0.8,0.36,1.399,0.36c0.819,0,1.539-0.54,1.529-1.409c0-0.84-0.569-1.429-1.859-1.429c-0.38,0-0.669,0.03-0.909,0.06
			l0.419-3.119h3.108V180.243z"/>
		<path d="M28.9,179.084c-0.23,0.839-0.66,1.919-0.93,2.378l-0.56,0.06c0.21-0.59,0.479-1.619,0.59-2.339L28.9,179.084z"/>
	</g>
</g>
<g>
	<g>
		<path fill="none" stroke="#58595B" stroke-width="3" stroke-miterlimit="10" d="M33.188,258.5c0,0,46.148,0,92.358,0
			c46.333,0,92.729,0,92.729,0"/>
		<path fill="none" stroke="#A5B8D3" stroke-width="3" stroke-miterlimit="10" d="M125.546,268.5c34.81,0,65.654,0,80.834,0"/>
		<path fill="none" stroke="#808285" stroke-width="3" stroke-miterlimit="10" d="M33.188,268.5c0,0,46.148,0,92.358,0"/>
	</g>
	<g>
		<path fill="none" stroke="#58595B" stroke-width="3" stroke-miterlimit="10" d="M218.275,302c0,0-46.148,0-92.358,0
			c-46.333,0-92.729,0-92.729,0"/>
		<path fill="none" stroke="#A5B8D3" stroke-width="3" stroke-miterlimit="10" d="M125.917,292c-34.81,0-65.654,0-80.834,0"/>
		<path fill="none" stroke="#808285" stroke-width="3" stroke-miterlimit="10" d="M218.275,292c0,0-46.148,0-92.358,0"/>
	</g>
	<g>
		<path d="M222.934,259.667c0.25,0.15,0.819,0.4,1.439,0.4c1.12,0,1.479-0.709,1.469-1.259c-0.01-0.91-0.83-1.299-1.679-1.299h-0.49
			v-0.66h0.49c0.64,0,1.449-0.33,1.449-1.1c0-0.52-0.33-0.979-1.14-0.979c-0.52,0-1.02,0.23-1.299,0.43l-0.24-0.64
			c0.35-0.25,1.009-0.5,1.709-0.5c1.279,0,1.859,0.76,1.859,1.549c0,0.68-0.41,1.249-1.199,1.539v0.02
			c0.8,0.15,1.439,0.75,1.449,1.659c0,1.04-0.819,1.949-2.369,1.949c-0.729,0-1.369-0.23-1.689-0.439L222.934,259.667z"/>
		<path d="M229.233,253.75c-0.23,0.839-0.66,1.919-0.93,2.378l-0.56,0.06c0.21-0.59,0.479-1.619,0.59-2.339L229.233,253.75z"/>
	</g>
	<g>
		<path d="M22.601,269c0.25,0.15,0.819,0.4,1.439,0.4c1.12,0,1.479-0.709,1.469-1.259c-0.01-0.91-0.83-1.299-1.679-1.299h-0.49
			v-0.66h0.49c0.64,0,1.449-0.33,1.449-1.1c0-0.52-0.33-0.979-1.14-0.979c-0.52,0-1.02,0.23-1.299,0.43l-0.24-0.64
			c0.35-0.25,1.009-0.5,1.709-0.5c1.279,0,1.859,0.76,1.859,1.549c0,0.68-0.41,1.249-1.199,1.539v0.02
			c0.8,0.15,1.439,0.75,1.449,1.659c0,1.04-0.819,1.949-2.369,1.949c-0.729,0-1.369-0.23-1.689-0.439L22.601,269z"/>
		<path d="M28.9,263.083c-0.23,0.839-0.66,1.919-0.93,2.378l-0.56,0.06c0.21-0.59,0.479-1.619,0.59-2.339L28.9,263.083z"/>
	</g>
	<g>
		<path d="M222.934,293.667c0.25,0.15,0.819,0.4,1.439,0.4c1.12,0,1.479-0.709,1.469-1.259c-0.01-0.91-0.83-1.299-1.679-1.299h-0.49
			v-0.66h0.49c0.64,0,1.449-0.33,1.449-1.1c0-0.52-0.33-0.979-1.14-0.979c-0.52,0-1.02,0.23-1.299,0.43l-0.24-0.64
			c0.35-0.25,1.009-0.5,1.709-0.5c1.279,0,1.859,0.76,1.859,1.549c0,0.68-0.41,1.249-1.199,1.539v0.02
			c0.8,0.15,1.439,0.75,1.449,1.659c0,1.04-0.819,1.949-2.369,1.949c-0.729,0-1.369-0.23-1.689-0.439L222.934,293.667z"/>
		<path d="M229.233,287.75c-0.23,0.839-0.66,1.919-0.93,2.378l-0.56,0.06c0.21-0.59,0.479-1.619,0.59-2.339L229.233,287.75z"/>
	</g>
	<g>
		<path d="M22.601,304.333c0.25,0.15,0.819,0.4,1.439,0.4c1.12,0,1.479-0.709,1.469-1.259c-0.01-0.91-0.83-1.299-1.679-1.299h-0.49
			v-0.66h0.49c0.64,0,1.449-0.33,1.449-1.1c0-0.52-0.33-0.979-1.14-0.979c-0.52,0-1.02,0.23-1.299,0.43l-0.24-0.64
			c0.35-0.25,1.009-0.5,1.709-0.5c1.279,0,1.859,0.76,1.859,1.549c0,0.68-0.41,1.249-1.199,1.539v0.02
			c0.8,0.15,1.439,0.75,1.449,1.659c0,1.04-0.819,1.949-2.369,1.949c-0.729,0-1.369-0.23-1.689-0.439L22.601,304.333z"/>
		<path d="M28.9,298.417c-0.23,0.839-0.66,1.919-0.93,2.378l-0.56,0.06c0.21-0.59,0.479-1.619,0.59-2.339L28.9,298.417z"/>
	</g>
	<g>
		<path d="M226.602,265.243h-2.479l-0.25,1.669c0.15-0.02,0.29-0.03,0.53-0.03c0.51,0,1,0.1,1.399,0.35
			c0.51,0.28,0.93,0.85,0.93,1.659c0,1.27-1.009,2.219-2.418,2.219c-0.71,0-1.299-0.2-1.619-0.4l0.22-0.669
			c0.27,0.16,0.8,0.36,1.399,0.36c0.819,0,1.539-0.54,1.529-1.409c0-0.84-0.569-1.429-1.859-1.429c-0.38,0-0.669,0.03-0.909,0.06
			l0.419-3.119h3.108V265.243z"/>
		<path d="M229.233,264.084c-0.23,0.839-0.66,1.919-0.93,2.378l-0.56,0.06c0.21-0.59,0.479-1.619,0.59-2.339L229.233,264.084z"/>
	</g>
	<g>
		<path d="M26.269,253.91h-2.479l-0.25,1.669c0.15-0.02,0.29-0.03,0.53-0.03c0.51,0,1,0.1,1.399,0.35
			c0.51,0.28,0.93,0.85,0.93,1.659c0,1.27-1.009,2.219-2.418,2.219c-0.71,0-1.299-0.2-1.619-0.4l0.22-0.669
			c0.27,0.16,0.8,0.36,1.399,0.36c0.819,0,1.539-0.54,1.529-1.409c0-0.84-0.569-1.429-1.859-1.429c-0.38,0-0.669,0.03-0.909,0.06
			l0.419-3.119h3.108V253.91z"/>
		<path d="M28.9,252.75c-0.23,0.839-0.66,1.919-0.93,2.378l-0.56,0.06c0.21-0.59,0.479-1.619,0.59-2.339L28.9,252.75z"/>
	</g>
	<g>
		<path d="M26.269,287.243h-2.479l-0.25,1.669c0.15-0.02,0.29-0.03,0.53-0.03c0.51,0,1,0.1,1.399,0.35
			c0.51,0.28,0.93,0.85,0.93,1.659c0,1.27-1.009,2.219-2.418,2.219c-0.71,0-1.299-0.2-1.619-0.4l0.22-0.669
			c0.27,0.16,0.8,0.36,1.399,0.36c0.819,0,1.539-0.54,1.529-1.409c0-0.84-0.569-1.429-1.859-1.429c-0.38,0-0.669,0.03-0.909,0.06
			l0.419-3.119h3.108V287.243z"/>
		<path d="M28.9,286.084c-0.23,0.839-0.66,1.919-0.93,2.378l-0.56,0.06c0.21-0.59,0.479-1.619,0.59-2.339L28.9,286.084z"/>
	</g>
	<g>
		<path d="M226.602,299.91h-2.479l-0.25,1.669c0.15-0.02,0.29-0.03,0.53-0.03c0.51,0,1,0.1,1.399,0.35
			c0.51,0.28,0.93,0.85,0.93,1.659c0,1.27-1.009,2.219-2.418,2.219c-0.71,0-1.299-0.2-1.619-0.4l0.22-0.669
			c0.27,0.16,0.8,0.36,1.399,0.36c0.819,0,1.539-0.54,1.529-1.409c0-0.84-0.569-1.429-1.859-1.429c-0.38,0-0.669,0.03-0.909,0.06
			l0.419-3.119h3.108V299.91z"/>
		<path d="M229.233,298.75c-0.23,0.839-0.66,1.919-0.93,2.378l-0.56,0.06c0.21-0.59,0.479-1.619,0.59-2.339L229.233,298.75z"/>
	</g>
</g>
<g>
	<g>
		<line fill="none" stroke="#414042" stroke-miterlimit="10" x1="125.588" y1="102.5" x2="125.588" y2="136.913"/>
		<g>
			<polygon fill="#414042" points="123.361,135.327 125.684,144 128.01,135.327 			"/>
		</g>
	</g>
</g>
<g>
	<g>
		<line fill="none" stroke="#414042" stroke-miterlimit="10" x1="125.588" y1="206" x2="125.588" y2="242.413"/>
		<g>
			<polygon fill="#414042" points="123.361,240.827 125.684,249.5 128.01,240.827 			"/>
		</g>
	</g>
</g>
<g>
	<g>
		<g>
			<g>
				<g>
					<path fill="none" stroke="#ED1C24" stroke-width="3" stroke-miterlimit="10" d="M158.727,56.727
						c2.654,2.48,4.16,4.273,4.16,4.273"/>
					<path fill="none" stroke="#58595B" stroke-width="3" stroke-miterlimit="10" d="M33.188,57h46c0,0,21.5-23,47-24
						s46.5,24,46.5,24h46.5"/>
					<g>
						<g>
							<path fill="none" stroke="#A5B8D3" stroke-width="3" stroke-miterlimit="10" d="M156.046,54.347
								c0.99,0.835,1.886,1.639,2.68,2.38"/>
							<g>
								<polygon fill="#A5B8D3" points="155.887,58.563 147.477,48.044 160.021,52.948 								"/>
							</g>
						</g>
					</g>
					<path fill="none" stroke="#ED1C24" stroke-width="3" stroke-miterlimit="10" d="M141.542,45.188
						c2.058,0.875,4.015,1.889,5.849,2.972"/>
					<g>
						<g>
							<path fill="none" stroke="#A5B8D3" stroke-width="3" stroke-miterlimit="10" d="M136.465,43.399
								c1.749,0.487,3.445,1.094,5.078,1.789"/>
							<g>
								<polygon fill="#A5B8D3" points="138.349,47.208 125.912,42.04 139.268,40.296 								"/>
							</g>
						</g>
					</g>
					<path fill="none" stroke="#ED1C24" stroke-width="3" stroke-miterlimit="10" d="M119.576,43.073
						c2.019-0.456,4.09-0.764,6.199-0.884"/>
					<g>
						<g>
							<path fill="none" stroke="#808285" stroke-width="3" stroke-miterlimit="10" d="M97.489,53.998
								c5.452-4.133,13.265-8.934,22.087-10.925"/>
							<g>
								<polygon fill="#808285" points="101.524,55.037 89.396,60.891 96.973,49.755 								"/>
							</g>
						</g>
					</g>
				</g>
				<circle fill="#58595B" cx="126.188" cy="33.083" r="2.292"/>
			</g>
			<g>
				<g>
					<path fill="none" stroke="#ED1C24" stroke-width="3" stroke-miterlimit="10" d="M93.65,67.564
						c-2.654-2.48-4.16-4.273-4.16-4.273"/>
					<path fill="none" stroke="#58595B" stroke-width="3" stroke-miterlimit="10" d="M219.188,67.291h-46c0,0-21.5,23-47,24
						s-46.5-24-46.5-24h-46.5"/>
					<g>
						<g>
							<path fill="none" stroke="#A5B8D3" stroke-width="3" stroke-miterlimit="10" d="M96.331,69.944
								c-0.99-0.835-1.886-1.639-2.68-2.38"/>
							<g>
								<polygon fill="#A5B8D3" points="96.49,65.728 104.9,76.247 92.356,71.343 								"/>
							</g>
						</g>
					</g>
					<path fill="none" stroke="#ED1C24" stroke-width="3" stroke-miterlimit="10" d="M110.834,79.103
						c-2.058-0.875-4.015-1.889-5.849-2.972"/>
					<g>
						<g>
							<path fill="none" stroke="#A5B8D3" stroke-width="3" stroke-miterlimit="10" d="M115.912,80.892
								c-1.749-0.487-3.445-1.094-5.078-1.789"/>
							<g>
								<polygon fill="#A5B8D3" points="114.028,77.083 126.465,82.251 113.109,83.995 								"/>
							</g>
						</g>
					</g>
					<path fill="none" stroke="#ED1C24" stroke-width="3" stroke-miterlimit="10" d="M132.801,81.218
						c-2.019,0.456-4.09,0.764-6.199,0.884"/>
					<g>
						<g>
							<path fill="none" stroke="#808285" stroke-width="3" stroke-miterlimit="10" d="M154.888,70.293
								c-5.452,4.133-13.265,8.934-22.087,10.925"/>
							<g>
								<polygon fill="#808285" points="150.853,69.254 162.981,63.4 155.404,74.536 								"/>
							</g>
						</g>
					</g>
				</g>
				<circle fill="#58595B" cx="126.188" cy="91.083" r="2.292"/>
			</g>
		</g>
		<g>
			<path d="M222.934,58.667c0.25,0.15,0.819,0.4,1.439,0.4c1.12,0,1.479-0.709,1.469-1.259c-0.01-0.91-0.83-1.299-1.679-1.299h-0.49
				v-0.66h0.49c0.64,0,1.449-0.33,1.449-1.1c0-0.52-0.33-0.979-1.14-0.979c-0.52,0-1.02,0.23-1.299,0.43l-0.24-0.64
				c0.35-0.25,1.009-0.5,1.709-0.5c1.279,0,1.859,0.76,1.859,1.549c0,0.68-0.41,1.249-1.199,1.539v0.02
				c0.8,0.15,1.439,0.75,1.449,1.659c0,1.04-0.819,1.949-2.369,1.949c-0.729,0-1.369-0.23-1.689-0.439L222.934,58.667z"/>
			<path d="M229.233,52.75c-0.23,0.839-0.66,1.919-0.93,2.378l-0.56,0.06c0.21-0.59,0.479-1.619,0.59-2.339L229.233,52.75z"/>
		</g>
		<g>
			<path d="M22.601,70.667c0.25,0.15,0.819,0.4,1.439,0.4c1.12,0,1.479-0.709,1.469-1.259c-0.01-0.91-0.83-1.299-1.679-1.299h-0.49
				v-0.66h0.49c0.64,0,1.449-0.33,1.449-1.1c0-0.52-0.33-0.979-1.14-0.979c-0.52,0-1.02,0.23-1.299,0.43l-0.24-0.64
				c0.35-0.25,1.009-0.5,1.709-0.5c1.279,0,1.859,0.76,1.859,1.549c0,0.68-0.41,1.249-1.199,1.539v0.02
				c0.8,0.15,1.439,0.75,1.449,1.659c0,1.04-0.819,1.949-2.369,1.949c-0.729,0-1.369-0.23-1.689-0.439L22.601,70.667z"/>
			<path d="M28.9,64.75c-0.23,0.839-0.66,1.919-0.93,2.378l-0.56,0.06c0.21-0.59,0.479-1.619,0.59-2.339L28.9,64.75z"/>
		</g>
		<g>
			<path d="M26.269,53.243h-2.479l-0.25,1.669c0.15-0.02,0.29-0.03,0.53-0.03c0.51,0,1,0.1,1.399,0.35
				c0.51,0.28,0.93,0.85,0.93,1.659c0,1.27-1.009,2.219-2.418,2.219c-0.71,0-1.299-0.2-1.619-0.4l0.22-0.669
				c0.27,0.16,0.8,0.36,1.399,0.36c0.819,0,1.539-0.54,1.529-1.409c0-0.84-0.569-1.429-1.859-1.429c-0.38,0-0.669,0.03-0.909,0.06
				l0.419-3.119h3.108V53.243z"/>
			<path d="M28.9,52.084c-0.23,0.839-0.66,1.919-0.93,2.378l-0.56,0.06c0.21-0.59,0.479-1.619,0.59-2.339L28.9,52.084z"/>
		</g>
		<g>
			<path d="M226.602,65.577h-2.479l-0.25,1.669c0.15-0.02,0.29-0.03,0.53-0.03c0.51,0,1,0.1,1.399,0.35
				c0.51,0.28,0.93,0.85,0.93,1.659c0,1.27-1.009,2.219-2.418,2.219c-0.71,0-1.299-0.2-1.619-0.4l0.22-0.669
				c0.27,0.16,0.8,0.36,1.399,0.36c0.819,0,1.539-0.54,1.529-1.409c0-0.84-0.569-1.429-1.859-1.429c-0.38,0-0.669,0.03-0.909,0.06
				l0.419-3.119h3.108V65.577z"/>
			<path d="M229.233,64.417c-0.23,0.839-0.66,1.919-0.93,2.378l-0.56,0.06c0.21-0.59,0.479-1.619,0.59-2.339L229.233,64.417z"/>
		</g>
	</g>
	<g>
		<g>
			<line fill="none" stroke="#459DD7" stroke-width="0.75" stroke-miterlimit="10" x1="126.029" y1="33.201" x2="187" y2="15.5"/>
			<g>
				<circle fill="#459DD7" cx="126.083" cy="33.186" r="1.128"/>
			</g>
		</g>
	</g>
	<g>
		<path d="M191.137,12.464h-1.436v-0.519h3.495v0.519h-1.443v4.202h-0.616V12.464z"/>
		<path d="M196.122,14.943c0,1.254-0.875,1.8-1.688,1.8c-0.911,0-1.625-0.672-1.625-1.744c0-1.127,0.75-1.793,1.681-1.793
			C195.463,13.207,196.122,13.914,196.122,14.943z M193.439,14.979c0,0.743,0.42,1.303,1.022,1.303c0.588,0,1.03-0.553,1.03-1.317
			c0-0.574-0.287-1.295-1.016-1.295C193.754,13.669,193.439,14.341,193.439,14.979z"/>
		<path d="M197.388,13.277v1.142c0,0.434,0.161,0.721,0.7,0.721c0.266,0,0.546-0.098,0.729-0.231v-1.632h0.609v3.432h-0.609v-1.366
			h-0.007c-0.231,0.147-0.602,0.252-0.924,0.252c-0.637,0-1.114-0.329-1.114-1.1v-1.218H197.388z"/>
		<path d="M201.042,13.277v1.471h0.147l1.268-1.471h0.75l-1.471,1.527c0.546,0.063,0.875,0.427,1.142,1.036
			c0.091,0.224,0.203,0.554,0.357,0.827h-0.645c-0.091-0.147-0.203-0.413-0.315-0.693c-0.231-0.546-0.546-0.798-1.113-0.798h-0.119
			v1.492h-0.609v-3.39H201.042z"/>
		<path d="M206.236,15.854c0,0.294,0.014,0.582,0.049,0.813h-0.553l-0.049-0.427h-0.021c-0.189,0.266-0.553,0.504-1.037,0.504
			c-0.687,0-1.037-0.483-1.037-0.974c0-0.819,0.729-1.268,2.038-1.261v-0.07c0-0.273-0.077-0.785-0.771-0.777
			c-0.322,0-0.651,0.091-0.889,0.252l-0.14-0.413c0.28-0.175,0.693-0.294,1.121-0.294c1.037,0,1.289,0.708,1.289,1.38V15.854z
			 M205.641,14.937c-0.672-0.014-1.436,0.105-1.436,0.764c0,0.406,0.266,0.588,0.574,0.588c0.448,0,0.736-0.28,0.833-0.567
			c0.021-0.07,0.028-0.14,0.028-0.196V14.937z"/>
		<path d="M211.5,13.277v3.39h-0.616V13.76h-1.576v2.907h-0.616v-3.39H211.5z"/>
		<path d="M215.568,14.943c0,1.254-0.875,1.8-1.688,1.8c-0.911,0-1.625-0.672-1.625-1.744c0-1.127,0.75-1.793,1.681-1.793
			C214.909,13.207,215.568,13.914,215.568,14.943z M212.885,14.979c0,0.743,0.42,1.303,1.022,1.303c0.588,0,1.03-0.553,1.03-1.317
			c0-0.574-0.287-1.295-1.016-1.295C213.2,13.669,212.885,14.341,212.885,14.979z"/>
		<path d="M216.833,13.277v1.142c0,0.434,0.161,0.721,0.7,0.721c0.266,0,0.546-0.098,0.729-0.231v-1.632h0.609v3.432h-0.609v-1.366
			h-0.007c-0.231,0.147-0.602,0.252-0.924,0.252c-0.637,0-1.114-0.329-1.114-1.1v-1.218H216.833z"/>
		<path d="M222.259,15.854c0,0.294,0.014,0.582,0.049,0.813h-0.553l-0.049-0.427h-0.021c-0.189,0.266-0.553,0.504-1.037,0.504
			c-0.687,0-1.037-0.483-1.037-0.974c0-0.819,0.729-1.268,2.038-1.261v-0.07c0-0.273-0.077-0.785-0.771-0.777
			c-0.322,0-0.651,0.091-0.889,0.252l-0.14-0.413c0.28-0.175,0.693-0.294,1.121-0.294c1.037,0,1.289,0.708,1.289,1.38V15.854z
			 M221.664,14.937c-0.672-0.014-1.436,0.105-1.436,0.764c0,0.406,0.266,0.588,0.574,0.588c0.448,0,0.736-0.28,0.833-0.567
			c0.021-0.07,0.028-0.14,0.028-0.196V14.937z"/>
		<path d="M225.494,13.277v0.483h-1.058v2.907h-0.617V13.76h-1.058v-0.483H225.494z"/>
		<path d="M226.641,13.277v1.471h0.147l1.268-1.471h0.75l-1.471,1.527c0.546,0.063,0.875,0.427,1.142,1.036
			c0.091,0.224,0.203,0.554,0.357,0.827h-0.645c-0.091-0.147-0.203-0.413-0.315-0.693c-0.231-0.546-0.546-0.798-1.114-0.798h-0.119
			v1.492h-0.609v-3.39H226.641z"/>
		<path d="M229.657,13.277l0.735,2.003c0.084,0.224,0.168,0.49,0.224,0.693h0.014c0.063-0.203,0.133-0.462,0.217-0.708l0.672-1.989
			h0.651l-0.925,2.416c-0.441,1.163-0.742,1.751-1.163,2.122c-0.308,0.259-0.602,0.364-0.756,0.393l-0.154-0.511
			c0.154-0.049,0.357-0.147,0.54-0.301c0.168-0.133,0.371-0.371,0.518-0.687c0.028-0.063,0.049-0.112,0.049-0.147
			s-0.014-0.084-0.049-0.161l-1.247-3.124H229.657z"/>
		<path d="M190.219,23.383c0-0.434-0.014-0.785-0.028-1.106h0.546l0.035,0.581h0.014c0.245-0.413,0.651-0.651,1.205-0.651
			c0.827,0,1.443,0.693,1.443,1.716c0,1.219-0.75,1.821-1.548,1.821c-0.448,0-0.84-0.196-1.043-0.532h-0.014v1.842h-0.609V23.383z
			 M190.829,24.287c0,0.091,0.007,0.175,0.028,0.252c0.112,0.427,0.483,0.721,0.925,0.721c0.651,0,1.029-0.532,1.029-1.31
			c0-0.672-0.357-1.254-1.008-1.254c-0.42,0-0.819,0.294-0.932,0.756c-0.021,0.077-0.042,0.168-0.042,0.245V24.287z"/>
		<path d="M194.545,24.083c0.014,0.833,0.539,1.177,1.163,1.177c0.441,0,0.714-0.077,0.938-0.175l0.112,0.441
			c-0.217,0.098-0.596,0.217-1.135,0.217c-1.043,0-1.667-0.693-1.667-1.716c0-1.023,0.603-1.821,1.59-1.821
			c1.114,0,1.401,0.967,1.401,1.59c0,0.126-0.007,0.217-0.021,0.287H194.545z M196.353,23.643c0.007-0.385-0.161-0.995-0.854-0.995
			c-0.63,0-0.896,0.567-0.946,0.995H196.353z"/>
		<path d="M200.497,22.277v3.39h-0.616V22.76h-1.576v2.907h-0.616v-3.39H200.497z"/>
		<path d="M204.073,22.277v3.39h-0.616V22.76h-1.163v0.869c0,0.953-0.091,1.59-0.532,1.877c-0.168,0.133-0.357,0.21-0.672,0.21
			l-0.063-0.483c0.119-0.021,0.252-0.07,0.336-0.14c0.315-0.231,0.35-0.708,0.35-1.464v-1.352H204.073z"/>
		<path d="M205.759,21.324c0,0.21-0.147,0.378-0.392,0.378c-0.224,0-0.372-0.168-0.372-0.378s0.154-0.385,0.385-0.385
			C205.605,20.939,205.759,21.107,205.759,21.324z M205.073,25.667v-3.39h0.616v3.39H205.073z"/>
		<path d="M207.32,22.277v1.471h0.147l1.268-1.471h0.75l-1.471,1.527c0.546,0.063,0.875,0.427,1.142,1.036
			c0.091,0.224,0.203,0.554,0.357,0.827h-0.645c-0.091-0.147-0.203-0.413-0.315-0.693c-0.231-0.546-0.546-0.798-1.114-0.798h-0.119
			v1.492h-0.609v-3.39H207.32z"/>
		<path d="M212.515,24.854c0,0.294,0.014,0.582,0.049,0.813h-0.553l-0.049-0.427h-0.021c-0.189,0.266-0.553,0.504-1.037,0.504
			c-0.687,0-1.037-0.483-1.037-0.974c0-0.819,0.729-1.268,2.038-1.261v-0.07c0-0.273-0.077-0.785-0.771-0.777
			c-0.322,0-0.651,0.091-0.889,0.252l-0.14-0.413c0.28-0.175,0.693-0.294,1.121-0.294c1.037,0,1.289,0.708,1.289,1.38V24.854z
			 M211.92,23.937c-0.672-0.014-1.436,0.105-1.436,0.764c0,0.406,0.266,0.588,0.574,0.588c0.448,0,0.736-0.28,0.833-0.567
			c0.021-0.07,0.028-0.14,0.028-0.196V23.937z"/>
		<path d="M214.103,22.277v2.906h1.562v-2.906h0.609v2.927l0.35,0.007l-0.035,1.527h-0.483l-0.028-1.072h-2.591v-3.39H214.103z"/>
		<path d="M218.044,21.324c0,0.21-0.147,0.378-0.392,0.378c-0.224,0-0.372-0.168-0.372-0.378s0.154-0.385,0.385-0.385
			C217.89,20.939,218.044,21.107,218.044,21.324z M217.357,25.667v-3.39h0.616v3.39H217.357z"/>
		<path d="M218.309,21.317c0-0.196,0.154-0.357,0.357-0.357c0.189,0,0.336,0.154,0.336,0.357c0,0.189-0.14,0.357-0.35,0.357
			C218.457,21.674,218.309,21.506,218.309,21.317z M218.996,25.667v-3.39h0.616v3.39H218.996z M219.605,21.317
			c0-0.196,0.154-0.357,0.35-0.357c0.196,0,0.343,0.154,0.343,0.357c0,0.189-0.14,0.357-0.35,0.357
			C219.745,21.674,219.605,21.506,219.605,21.317z"/>
	</g>
	<g>
		<g>
			<line fill="none" stroke="#459DD7" stroke-width="0.75" stroke-miterlimit="10" x1="144.839" y1="46.855" x2="187" y2="37.667"/>
			<g>
				<circle fill="#459DD7" cx="144.894" cy="46.843" r="1.128"/>
			</g>
		</g>
	</g>
	<g>
		<g>
			
				<line fill="none" stroke="#459DD7" stroke-width="0.75" stroke-miterlimit="10" x1="161.036" y1="58.902" x2="186.708" y2="37.75"/>
			<g>
				<circle fill="#459DD7" cx="161.079" cy="58.866" r="1.128"/>
			</g>
		</g>
	</g>
	<g>
		<path d="M11.218,89.946v4.721h-0.616v-4.209H9.047v1.429c0,1.022-0.049,2.164-0.708,2.612c-0.175,0.112-0.455,0.224-0.729,0.224
			l-0.077-0.49c0.189-0.028,0.385-0.14,0.497-0.252c0.378-0.364,0.413-1.289,0.413-2.045v-1.989H11.218z"/>
		<path d="M14.634,93.854c0,0.294,0.014,0.582,0.049,0.813H14.13l-0.049-0.427H14.06c-0.189,0.266-0.553,0.504-1.037,0.504
			c-0.687,0-1.037-0.483-1.037-0.974c0-0.819,0.729-1.268,2.038-1.261v-0.07c0-0.273-0.077-0.785-0.771-0.777
			c-0.322,0-0.651,0.091-0.889,0.252l-0.14-0.413c0.28-0.175,0.693-0.294,1.121-0.294c1.037,0,1.289,0.708,1.289,1.38V93.854z
			 M14.039,92.937c-0.672-0.014-1.436,0.105-1.436,0.764c0,0.406,0.266,0.588,0.574,0.588c0.448,0,0.736-0.28,0.833-0.567
			c0.021-0.07,0.028-0.14,0.028-0.196V92.937z"/>
		<path d="M16.222,91.277v1.366h1.604v-1.366h0.616v3.39h-0.616v-1.534h-1.604v1.534h-0.616v-3.39H16.222z"/>
		<path d="M20.044,91.277v2.906h1.562v-2.906h0.609v2.927l0.35,0.007l-0.035,1.527h-0.483l-0.028-1.072h-2.591v-3.39H20.044z"/>
		<path d="M23.887,91.277v1.429h0.582c0.105-0.896,0.686-1.499,1.499-1.499c0.89,0,1.492,0.693,1.492,1.737
			c0,1.1-0.672,1.8-1.527,1.8c-0.819,0-1.408-0.603-1.478-1.569h-0.567v1.492h-0.603v-3.39H23.887z M26.842,92.958
			c0-0.63-0.287-1.289-0.89-1.289c-0.595,0-0.91,0.637-0.91,1.324c0,0.658,0.301,1.295,0.903,1.295
			C26.562,94.288,26.842,93.602,26.842,92.958z"/>
		<path d="M30.299,91.277v0.49h-1.471v2.899h-0.609v-3.39H30.299z"/>
		<path d="M29.998,95.535c0.154-0.42,0.343-1.17,0.42-1.681l0.687-0.07c-0.168,0.595-0.477,1.373-0.672,1.702L29.998,95.535z"/>
		<path d="M33.917,91.277v2.906h1.184v-2.906h0.609v2.906h1.177v-2.906h0.602v2.927l0.35,0.007l-0.035,1.527h-0.483L37.3,94.667
			h-3.992v-3.39H33.917z"/>
		<path d="M41.612,92.943c0,1.254-0.875,1.8-1.688,1.8c-0.911,0-1.625-0.672-1.625-1.744c0-1.127,0.75-1.793,1.681-1.793
			C40.954,91.207,41.612,91.914,41.612,92.943z M38.93,92.979c0,0.743,0.42,1.303,1.022,1.303c0.588,0,1.03-0.553,1.03-1.317
			c0-0.574-0.287-1.295-1.016-1.295C39.245,91.669,38.93,92.341,38.93,92.979z"/>
		<path d="M43.85,91.319c0.245-0.042,0.687-0.077,1.079-0.077c0.574,0,1.513,0.098,1.513,0.848c0,0.42-0.322,0.686-0.707,0.77v0.014
			c0.497,0.07,0.861,0.343,0.861,0.833c0,0.89-1.121,1.001-1.786,1.001c-0.378,0-0.777-0.028-0.959-0.042V91.319z M44.438,94.267
			c0.175,0.014,0.301,0.021,0.49,0.021c0.42,0,1.037-0.091,1.037-0.588c0-0.491-0.498-0.596-1.079-0.596h-0.448V94.267z
			 M44.445,92.706h0.462c0.455,0,0.924-0.133,0.924-0.54c0-0.336-0.294-0.497-0.91-0.497c-0.21,0-0.336,0.014-0.477,0.028V92.706z"
			/>
		<path d="M48.058,90.324c0,0.21-0.147,0.378-0.392,0.378c-0.224,0-0.372-0.168-0.372-0.378s0.154-0.385,0.385-0.385
			C47.903,89.939,48.058,90.107,48.058,90.324z M47.371,94.667v-3.39h0.616v3.39H47.371z"/>
		<path d="M51.636,91.277v2.927l0.35,0.007l-0.035,1.527h-0.483l-0.028-1.072h-2.346l-0.035,1.072h-0.476l-0.028-1.52l0.287-0.014
			c0.147-0.217,0.259-0.448,0.336-0.693c0.133-0.42,0.196-0.875,0.196-1.352v-0.882H51.636z M49.913,92.299
			c0,0.455-0.056,0.889-0.175,1.268c-0.07,0.231-0.161,0.441-0.266,0.63h1.562v-2.451h-1.121V92.299z"/>
		<path d="M55.107,94.547c-0.161,0.077-0.519,0.196-0.974,0.196c-1.022,0-1.688-0.693-1.688-1.73c0-1.043,0.714-1.807,1.821-1.807
			c0.364,0,0.687,0.091,0.854,0.182l-0.14,0.469c-0.147-0.077-0.378-0.161-0.714-0.161c-0.777,0-1.197,0.582-1.197,1.282
			c0,0.785,0.504,1.268,1.176,1.268c0.351,0,0.582-0.084,0.757-0.161L55.107,94.547z"/>
		<path d="M58.229,91.277v0.483h-1.057v2.907h-0.617V91.76h-1.058v-0.483H58.229z"/>
		<path d="M61.1,93.854c0,0.294,0.014,0.582,0.049,0.813h-0.553l-0.049-0.427h-0.021c-0.189,0.266-0.553,0.504-1.037,0.504
			c-0.687,0-1.037-0.483-1.037-0.974c0-0.819,0.729-1.268,2.038-1.261v-0.07c0-0.273-0.077-0.785-0.771-0.777
			c-0.322,0-0.651,0.091-0.889,0.252l-0.14-0.413c0.28-0.175,0.693-0.294,1.121-0.294c1.037,0,1.289,0.708,1.289,1.38V93.854z
			 M60.504,92.937c-0.672-0.014-1.436,0.105-1.436,0.764c0,0.406,0.266,0.588,0.574,0.588c0.448,0,0.736-0.28,0.833-0.567
			c0.021-0.07,0.028-0.14,0.028-0.196V92.937z"/>
		<path d="M64.459,91.872c-0.161-0.077-0.413-0.189-0.771-0.189c-0.742,0-1.142,0.469-1.211,1.043h1.716v0.427h-1.709
			c0.049,0.672,0.525,1.106,1.191,1.106c0.364,0,0.644-0.105,0.813-0.175l0.119,0.441c-0.168,0.084-0.546,0.217-1.029,0.217
			c-1.093,0-1.73-0.756-1.73-1.744c0-1.079,0.771-1.793,1.849-1.793c0.413,0,0.756,0.133,0.91,0.224L64.459,91.872z"/>
	</g>
	<g>
		<g>
			<line fill="none" stroke="#459DD7" stroke-width="0.75" stroke-miterlimit="10" x1="105.201" y1="48.963" x2="68" y2="82.167"/>
			<g>
				<circle fill="#459DD7" cx="105.158" cy="49.001" r="1.128"/>
			</g>
		</g>
	</g>
	<g>
		<path d="M16.718,78.446v4.721h-0.616v-4.209h-1.555v1.429c0,1.022-0.049,2.164-0.708,2.612c-0.175,0.112-0.455,0.224-0.729,0.224
			l-0.077-0.49c0.189-0.028,0.385-0.14,0.497-0.252c0.378-0.364,0.413-1.289,0.413-2.045v-1.989H16.718z"/>
		<path d="M18.439,78.824c0,0.21-0.147,0.378-0.392,0.378c-0.224,0-0.372-0.168-0.372-0.378s0.154-0.385,0.385-0.385
			C18.285,78.439,18.439,78.607,18.439,78.824z M17.753,83.167v-3.39h0.616v3.39H17.753z"/>
		<path d="M22.017,79.777v2.927l0.35,0.007l-0.035,1.527h-0.483l-0.028-1.072h-2.346l-0.035,1.072h-0.477l-0.028-1.52l0.287-0.014
			c0.147-0.217,0.259-0.448,0.336-0.693c0.133-0.42,0.196-0.875,0.196-1.352v-0.882H22.017z M20.294,80.799
			c0,0.455-0.056,0.889-0.175,1.268c-0.07,0.231-0.161,0.441-0.266,0.63h1.562v-2.451h-1.121V80.799z"/>
		<path d="M23.416,81.583c0.014,0.833,0.539,1.177,1.163,1.177c0.441,0,0.714-0.077,0.938-0.175l0.112,0.441
			c-0.217,0.098-0.596,0.217-1.135,0.217c-1.043,0-1.667-0.693-1.667-1.716c0-1.023,0.603-1.821,1.59-1.821
			c1.114,0,1.401,0.967,1.401,1.59c0,0.126-0.007,0.217-0.021,0.287H23.416z M25.223,81.143c0.007-0.385-0.161-0.995-0.854-0.995
			c-0.63,0-0.896,0.567-0.946,0.995H25.223z"/>
		<path d="M26.58,80.883c0-0.434-0.014-0.785-0.028-1.106h0.546l0.035,0.581h0.014c0.245-0.413,0.651-0.651,1.205-0.651
			c0.827,0,1.443,0.693,1.443,1.716c0,1.219-0.75,1.821-1.548,1.821c-0.448,0-0.84-0.196-1.043-0.532h-0.014v1.842H26.58V80.883z
			 M27.189,81.787c0,0.091,0.007,0.175,0.028,0.252c0.112,0.427,0.483,0.721,0.925,0.721c0.651,0,1.029-0.532,1.029-1.31
			c0-0.672-0.357-1.254-1.008-1.254c-0.42,0-0.819,0.294-0.932,0.756c-0.021,0.077-0.042,0.168-0.042,0.245V81.787z"/>
		<path d="M31.158,79.777v1.366h1.604v-1.366h0.616v3.39h-0.616v-1.534h-1.604v1.534h-0.616v-3.39H31.158z"/>
		<path d="M34.952,79.777v1.429c0,0.532-0.014,0.875-0.042,1.358l0.021,0.007c0.21-0.414,0.322-0.651,0.553-1.043l1.058-1.751h0.721
			v3.39h-0.588v-1.436c0-0.554,0.014-0.841,0.042-1.394h-0.014c-0.224,0.441-0.364,0.714-0.567,1.058
			c-0.322,0.525-0.7,1.177-1.058,1.772h-0.714v-3.39H34.952z"/>
		<path d="M38.83,79.777v1.429c0,0.532-0.014,0.875-0.042,1.358l0.021,0.007c0.21-0.414,0.322-0.651,0.553-1.043l1.058-1.751h0.721
			v3.39h-0.588v-1.436c0-0.554,0.014-0.841,0.042-1.394h-0.014c-0.224,0.441-0.364,0.714-0.567,1.058
			c-0.322,0.525-0.7,1.177-1.058,1.772h-0.714v-3.39H38.83z M39.229,78.397c0.021,0.301,0.168,0.532,0.448,0.532
			c0.301,0,0.441-0.231,0.476-0.532h0.441c-0.035,0.567-0.393,0.869-0.932,0.869c-0.616,0-0.854-0.393-0.882-0.869H39.229z"/>
		<path d="M46.173,79.777v3.39h-0.616V80.26h-1.163v0.869c0,0.953-0.091,1.59-0.532,1.877c-0.168,0.133-0.357,0.21-0.672,0.21
			l-0.063-0.483c0.119-0.021,0.252-0.07,0.336-0.14c0.315-0.231,0.35-0.708,0.35-1.464v-1.352H46.173z"/>
		<path d="M49.554,82.354c0,0.294,0.014,0.582,0.049,0.813H49.05l-0.049-0.427H48.98c-0.189,0.266-0.553,0.504-1.037,0.504
			c-0.687,0-1.037-0.483-1.037-0.974c0-0.819,0.729-1.268,2.038-1.261v-0.07c0-0.273-0.077-0.785-0.771-0.777
			c-0.322,0-0.651,0.091-0.889,0.252l-0.14-0.413c0.28-0.175,0.693-0.294,1.121-0.294c1.037,0,1.289,0.708,1.289,1.38V82.354z
			 M48.959,81.437c-0.672-0.014-1.436,0.105-1.436,0.764c0,0.406,0.266,0.588,0.574,0.588c0.448,0,0.736-0.28,0.833-0.567
			c0.021-0.07,0.028-0.14,0.028-0.196V81.437z"/>
		<path d="M51.142,79.777v1.366h1.604v-1.366h0.616v3.39h-0.616v-1.534h-1.604v1.534h-0.616v-3.39H51.142z"/>
		<path d="M54.964,79.777v2.906h1.562v-2.906h0.609v2.927l0.35,0.007l-0.035,1.527h-0.483l-0.028-1.072h-2.591v-3.39H54.964z"/>
		<path d="M58.807,79.777v1.429h0.581c0.105-0.896,0.687-1.499,1.499-1.499c0.89,0,1.492,0.693,1.492,1.737
			c0,1.1-0.672,1.8-1.527,1.8c-0.819,0-1.408-0.603-1.478-1.569h-0.567v1.492h-0.603v-3.39H58.807z M61.763,81.458
			c0-0.63-0.287-1.289-0.89-1.289c-0.595,0-0.91,0.637-0.91,1.324c0,0.658,0.301,1.295,0.903,1.295
			C61.482,82.788,61.763,82.102,61.763,81.458z"/>
		<path d="M65.22,79.777v0.49h-1.471v2.899H63.14v-3.39H65.22z"/>
	</g>
	<g>
		<path d="M190.233,34.835c0.294-0.049,0.679-0.091,1.17-0.091c0.602,0,1.043,0.14,1.323,0.392c0.252,0.224,0.414,0.567,0.414,0.987
			c0,0.427-0.126,0.764-0.364,1.009c-0.329,0.343-0.848,0.518-1.443,0.518c-0.182,0-0.35-0.007-0.49-0.042V39.5h-0.609V34.835z
			 M190.843,37.112c0.133,0.035,0.301,0.049,0.504,0.049c0.735,0,1.184-0.364,1.184-1.001c0-0.63-0.448-0.932-1.114-0.932
			c-0.266,0-0.469,0.021-0.574,0.049V37.112z"/>
		<path d="M194.567,34.779v1.975h2.283v-1.975h0.616V39.5h-0.616v-2.213h-2.283V39.5h-0.616v-4.721H194.567z"/>
		<path d="M199.131,34.779v2.094h0.189l1.618-2.094h0.728l-1.786,2.165c0.784,0.105,1.085,0.581,1.324,1.218
			c0.182,0.483,0.315,0.917,0.518,1.338h-0.651c-0.175-0.322-0.301-0.742-0.434-1.114c-0.217-0.623-0.511-1.05-1.31-1.05h-0.196
			V39.5h-0.609v-4.721H199.131z"/>
		<path d="M203.59,37.385v0.448h-1.73v-0.448H203.59z"/>
		<path d="M207.098,36.11v3.39h-0.616v-2.907h-1.576V39.5h-0.616v-3.39H207.098z"/>
		<path d="M208.097,37.217c0-0.434-0.014-0.785-0.028-1.106h0.546l0.035,0.581h0.014c0.245-0.413,0.651-0.651,1.205-0.651
			c0.827,0,1.443,0.693,1.443,1.716c0,1.219-0.75,1.821-1.548,1.821c-0.448,0-0.84-0.196-1.043-0.532h-0.014v1.842h-0.609V37.217z
			 M208.707,38.12c0,0.091,0.007,0.175,0.028,0.252c0.112,0.427,0.483,0.721,0.925,0.721c0.651,0,1.029-0.532,1.029-1.31
			c0-0.672-0.357-1.254-1.008-1.254c-0.42,0-0.819,0.294-0.932,0.756c-0.021,0.077-0.042,0.168-0.042,0.245V38.12z"/>
		<path d="M214.461,38.688c0,0.294,0.014,0.582,0.049,0.813h-0.553l-0.049-0.427h-0.021c-0.189,0.266-0.553,0.504-1.037,0.504
			c-0.687,0-1.037-0.483-1.037-0.974c0-0.819,0.729-1.268,2.038-1.261v-0.07c0-0.273-0.077-0.785-0.771-0.777
			c-0.322,0-0.651,0.091-0.889,0.252l-0.14-0.413c0.28-0.175,0.693-0.294,1.121-0.294c1.037,0,1.289,0.708,1.289,1.38V38.688z
			 M213.866,37.77c-0.672-0.014-1.436,0.105-1.436,0.764c0,0.406,0.266,0.588,0.574,0.588c0.448,0,0.736-0.28,0.833-0.567
			c0.021-0.07,0.028-0.14,0.028-0.196V37.77z"/>
		<path d="M216.021,36.11v1.429c0,0.532-0.014,0.875-0.042,1.358L216,38.905c0.21-0.414,0.322-0.651,0.553-1.043l1.058-1.751h0.721
			v3.39h-0.588v-1.436c0-0.554,0.014-0.841,0.042-1.394h-0.014c-0.224,0.441-0.364,0.714-0.567,1.058
			c-0.322,0.525-0.7,1.177-1.058,1.772h-0.714v-3.39H216.021z M216.421,34.73c0.021,0.301,0.168,0.532,0.448,0.532
			c0.301,0,0.441-0.231,0.476-0.532h0.441c-0.035,0.567-0.393,0.869-0.932,0.869c-0.616,0-0.854-0.393-0.882-0.869H216.421z"/>
		<path d="M219.374,36.11h0.756l0.609,1.709c0.091,0.252,0.231,0.665,0.308,0.931h0.014c0.077-0.259,0.266-0.792,0.406-1.163
			l0.539-1.478h0.764l0.238,3.39h-0.588l-0.077-1.618c-0.014-0.372-0.042-0.799-0.056-1.212h-0.021
			c-0.091,0.308-0.189,0.574-0.378,1.1l-0.651,1.709h-0.441l-0.603-1.681c-0.112-0.315-0.259-0.805-0.343-1.121h-0.028
			c-0.014,0.399-0.028,0.848-0.049,1.219l-0.091,1.604h-0.567L219.374,36.11z"/>
		<path d="M224.148,37.917c0.014,0.833,0.539,1.177,1.163,1.177c0.441,0,0.714-0.077,0.938-0.175l0.112,0.441
			c-0.217,0.098-0.596,0.217-1.135,0.217c-1.043,0-1.667-0.693-1.667-1.716c0-1.023,0.603-1.821,1.59-1.821
			c1.114,0,1.401,0.967,1.401,1.59c0,0.126-0.007,0.217-0.021,0.287H224.148z M225.955,37.476c0.007-0.385-0.161-0.995-0.854-0.995
			c-0.63,0-0.896,0.567-0.946,0.995H225.955z"/>
		<path d="M227.312,37.217c0-0.434-0.014-0.785-0.028-1.106h0.546l0.035,0.581h0.014c0.245-0.413,0.651-0.651,1.205-0.651
			c0.827,0,1.443,0.693,1.443,1.716c0,1.219-0.75,1.821-1.548,1.821c-0.448,0-0.84-0.196-1.043-0.532h-0.014v1.842h-0.609V37.217z
			 M227.921,38.12c0,0.091,0.007,0.175,0.028,0.252c0.112,0.427,0.483,0.721,0.925,0.721c0.651,0,1.029-0.532,1.029-1.31
			c0-0.672-0.357-1.254-1.008-1.254c-0.42,0-0.819,0.294-0.932,0.756c-0.021,0.077-0.042,0.168-0.042,0.245V38.12z"/>
		<path d="M231.862,36.11v1.429c0,0.532-0.014,0.875-0.042,1.358l0.021,0.007c0.21-0.414,0.322-0.651,0.553-1.043l1.058-1.751h0.721
			v3.39h-0.588v-1.436c0-0.554,0.014-0.841,0.042-1.394h-0.014c-0.224,0.441-0.364,0.714-0.567,1.058
			c-0.322,0.525-0.7,1.177-1.058,1.772h-0.714v-3.39H231.862z"/>
	</g>
	<g>
		<g>
			<line fill="none" stroke="#459DD7" stroke-width="0.75" stroke-miterlimit="10" x1="97.385" y1="71.215" x2="68" y2="92.667"/>
			<g>
				<circle fill="#459DD7" cx="97.339" cy="71.249" r="1.128"/>
			</g>
		</g>
	</g>
	<g>
		<g>
			<line fill="none" stroke="#459DD7" stroke-width="0.75" stroke-miterlimit="10" x1="116.125" y1="81.002" x2="68" y2="92.667"/>
			<g>
				<circle fill="#459DD7" cx="116.07" cy="81.016" r="1.128"/>
			</g>
		</g>
	</g>
</g>
<g>
	<path d="M132.017,112.22c0.322-0.21,0.729-0.357,1.247-0.357c0.82,0,1.387,0.427,1.387,1.156c0,0.581-0.427,1.029-0.973,1.156
		v0.014c0.658,0.07,1.148,0.504,1.155,1.184c0,0.981-0.854,1.373-1.716,1.373c-0.427,0-0.868-0.091-1.232-0.308l0.161-0.477
		c0.259,0.147,0.672,0.287,1.064,0.287c0.693,0,1.079-0.378,1.079-0.896c0-0.707-0.68-0.91-1.282-0.91h-0.28v-0.462h0.273
		c0.623,0,1.113-0.385,1.113-0.869c0-0.483-0.343-0.749-0.847-0.749c-0.364,0-0.729,0.147-0.988,0.308L132.017,112.22z"/>
	<path d="M138.003,115.854c0,0.294,0.014,0.582,0.049,0.813h-0.553l-0.049-0.427h-0.021c-0.189,0.266-0.553,0.504-1.037,0.504
		c-0.687,0-1.037-0.483-1.037-0.974c0-0.819,0.729-1.268,2.038-1.261v-0.07c0-0.273-0.077-0.785-0.771-0.777
		c-0.322,0-0.651,0.091-0.889,0.252l-0.14-0.413c0.28-0.175,0.693-0.294,1.121-0.294c1.037,0,1.289,0.708,1.289,1.38V115.854z
		 M137.408,114.937c-0.672-0.014-1.436,0.105-1.436,0.764c0,0.406,0.266,0.588,0.574,0.588c0.448,0,0.736-0.28,0.833-0.567
		c0.021-0.07,0.028-0.14,0.028-0.196V114.937z"/>
	<path d="M138.975,113.319c0.245-0.042,0.687-0.077,1.079-0.077c0.574,0,1.513,0.098,1.513,0.848c0,0.42-0.322,0.686-0.707,0.77
		v0.014c0.497,0.07,0.861,0.343,0.861,0.833c0,0.89-1.121,1.001-1.786,1.001c-0.378,0-0.777-0.028-0.959-0.042V113.319z
		 M139.563,116.268c0.175,0.014,0.301,0.021,0.49,0.021c0.42,0,1.037-0.091,1.037-0.588c0-0.491-0.498-0.596-1.079-0.596h-0.448
		V116.268z M139.57,114.706h0.462c0.455,0,0.924-0.133,0.924-0.54c0-0.336-0.294-0.497-0.91-0.497c-0.21,0-0.336,0.014-0.477,0.028
		V114.706z"/>
	<path d="M142.839,115.084c0.014,0.833,0.539,1.177,1.163,1.177c0.441,0,0.714-0.077,0.938-0.175l0.112,0.441
		c-0.217,0.098-0.596,0.217-1.135,0.217c-1.043,0-1.667-0.693-1.667-1.716c0-1.023,0.603-1.821,1.59-1.821
		c1.114,0,1.401,0.967,1.401,1.59c0,0.126-0.007,0.217-0.021,0.287H142.839z M144.646,114.643c0.007-0.385-0.161-0.995-0.854-0.995
		c-0.63,0-0.896,0.567-0.946,0.995H144.646z"/>
	<path d="M146.002,114.384c0-0.434-0.014-0.785-0.028-1.106h0.546l0.035,0.581h0.014c0.245-0.413,0.651-0.651,1.205-0.651
		c0.827,0,1.443,0.693,1.443,1.716c0,1.219-0.75,1.821-1.548,1.821c-0.448,0-0.84-0.196-1.043-0.532h-0.014v1.842h-0.609V114.384z
		 M146.612,115.287c0,0.091,0.007,0.175,0.028,0.252c0.112,0.427,0.483,0.721,0.925,0.721c0.651,0,1.029-0.532,1.029-1.31
		c0-0.672-0.357-1.254-1.008-1.254c-0.42,0-0.819,0.294-0.932,0.756c-0.021,0.077-0.042,0.168-0.042,0.245V115.287z"/>
	<path d="M150.574,113.277v2.906h1.177v-2.906h0.609v2.906h1.176v-2.906h0.609v3.39h-4.181v-3.39H150.574z"/>
	<path d="M155.495,115.084c0.014,0.833,0.539,1.177,1.163,1.177c0.441,0,0.714-0.077,0.938-0.175l0.112,0.441
		c-0.217,0.098-0.596,0.217-1.135,0.217c-1.043,0-1.667-0.693-1.667-1.716c0-1.023,0.603-1.821,1.59-1.821
		c1.114,0,1.401,0.967,1.401,1.59c0,0.126-0.007,0.217-0.021,0.287H155.495z M157.302,114.643c0.007-0.385-0.161-0.995-0.854-0.995
		c-0.63,0-0.896,0.567-0.946,0.995H157.302z"/>
	<path d="M159.253,113.277v1.366h1.604v-1.366h0.616v3.39h-0.616v-1.534h-1.604v1.534h-0.616v-3.39H159.253z"/>
	<path d="M163.076,113.277v1.366h1.604v-1.366h0.616v3.39h-0.616v-1.534h-1.604v1.534h-0.616v-3.39H163.076z"/>
	<path d="M168.802,116.667h-0.609v-1.422h-0.456c-0.259,0-0.434,0.07-0.56,0.196c-0.259,0.203-0.351,0.616-0.483,0.945
		c-0.042,0.105-0.091,0.196-0.14,0.28h-0.658c0.077-0.112,0.147-0.238,0.21-0.385c0.147-0.329,0.231-0.771,0.532-1.022
		c0.105-0.091,0.231-0.161,0.385-0.196v-0.014c-0.441-0.049-0.896-0.322-0.896-0.848c0-0.35,0.189-0.588,0.448-0.735
		c0.28-0.168,0.693-0.231,1.142-0.231c0.399,0,0.792,0.028,1.085,0.07V116.667z M168.193,113.684
		c-0.154-0.021-0.294-0.035-0.512-0.035c-0.413,0-0.917,0.119-0.917,0.588c0,0.434,0.54,0.595,0.904,0.595c0.259,0,0.385,0,0.525,0
		V113.684z"/>
	<path d="M132.178,123.384c0-0.434-0.014-0.785-0.028-1.106h0.546l0.035,0.581h0.014c0.245-0.413,0.651-0.651,1.205-0.651
		c0.827,0,1.443,0.693,1.443,1.716c0,1.219-0.75,1.821-1.548,1.821c-0.448,0-0.84-0.196-1.043-0.532h-0.014v1.842h-0.609V123.384z
		 M132.787,124.287c0,0.091,0.007,0.175,0.028,0.252c0.112,0.427,0.483,0.721,0.925,0.721c0.651,0,1.029-0.532,1.029-1.31
		c0-0.672-0.357-1.254-1.008-1.254c-0.42,0-0.819,0.294-0.932,0.756c-0.021,0.077-0.042,0.168-0.042,0.245V124.287z"/>
	<path d="M136.504,124.084c0.014,0.833,0.539,1.177,1.163,1.177c0.441,0,0.714-0.077,0.938-0.175l0.112,0.441
		c-0.217,0.098-0.596,0.217-1.135,0.217c-1.043,0-1.667-0.693-1.667-1.716c0-1.023,0.603-1.821,1.59-1.821
		c1.114,0,1.401,0.967,1.401,1.59c0,0.126-0.007,0.217-0.021,0.287H136.504z M138.311,123.643c0.007-0.385-0.161-0.995-0.854-0.995
		c-0.63,0-0.896,0.567-0.946,0.995H138.311z"/>
	<path d="M142.455,122.277v3.39h-0.616v-2.907h-1.576v2.907h-0.616v-3.39H142.455z"/>
	<path d="M146.032,122.277v3.39h-0.616v-2.907h-1.163v0.869c0,0.953-0.091,1.59-0.532,1.877c-0.168,0.133-0.357,0.21-0.672,0.21
		l-0.063-0.483c0.119-0.021,0.252-0.07,0.336-0.14c0.315-0.231,0.35-0.708,0.35-1.464v-1.352H146.032z"/>
	<path d="M147.718,121.325c0,0.21-0.147,0.378-0.392,0.378c-0.224,0-0.372-0.168-0.372-0.378s0.154-0.385,0.385-0.385
		C147.563,120.939,147.718,121.107,147.718,121.325z M147.031,125.667v-3.39h0.616v3.39H147.031z"/>
	<path d="M149.279,122.277v1.471h0.147l1.268-1.471h0.75l-1.471,1.527c0.546,0.063,0.875,0.427,1.142,1.036
		c0.091,0.224,0.203,0.554,0.357,0.827h-0.645c-0.091-0.147-0.203-0.413-0.315-0.693c-0.231-0.546-0.546-0.798-1.114-0.798h-0.119
		v1.492h-0.609v-3.39H149.279z"/>
	<path d="M154.474,124.854c0,0.294,0.014,0.582,0.049,0.813h-0.553l-0.049-0.427h-0.021c-0.189,0.266-0.553,0.504-1.037,0.504
		c-0.687,0-1.037-0.483-1.037-0.974c0-0.819,0.729-1.268,2.038-1.261v-0.07c0-0.273-0.077-0.785-0.771-0.777
		c-0.322,0-0.651,0.091-0.889,0.252l-0.14-0.413c0.28-0.175,0.693-0.294,1.121-0.294c1.037,0,1.289,0.708,1.289,1.38V124.854z
		 M153.878,123.937c-0.672-0.014-1.436,0.105-1.436,0.764c0,0.406,0.266,0.588,0.574,0.588c0.448,0,0.736-0.28,0.833-0.567
		c0.021-0.07,0.028-0.14,0.028-0.196V123.937z"/>
	<path d="M156.062,122.277v2.906h1.562v-2.906h0.609v2.927l0.35,0.007l-0.035,1.527h-0.483l-0.028-1.072h-2.591v-3.39H156.062z"/>
	<path d="M160.002,121.325c0,0.21-0.147,0.378-0.392,0.378c-0.224,0-0.372-0.168-0.372-0.378s0.154-0.385,0.385-0.385
		C159.848,120.939,160.002,121.107,160.002,121.325z M159.316,125.667v-3.39h0.616v3.39H159.316z"/>
	<path d="M160.268,121.318c0-0.196,0.154-0.357,0.357-0.357c0.189,0,0.336,0.154,0.336,0.357c0,0.189-0.14,0.357-0.35,0.357
		C160.415,121.675,160.268,121.507,160.268,121.318z M160.954,125.667v-3.39h0.616v3.39H160.954z M161.563,121.318
		c0-0.196,0.154-0.357,0.35-0.357c0.196,0,0.343,0.154,0.343,0.357c0,0.189-0.14,0.357-0.35,0.357
		C161.704,121.675,161.563,121.507,161.563,121.318z"/>
</g>
<g>
	<path d="M132.199,212.669c0.294-0.049,0.679-0.091,1.17-0.091c0.602,0,1.043,0.14,1.323,0.392c0.252,0.224,0.414,0.567,0.414,0.987
		c0,0.427-0.126,0.764-0.364,1.009c-0.329,0.343-0.848,0.518-1.443,0.518c-0.182,0-0.35-0.007-0.49-0.042v1.891h-0.609V212.669z
		 M132.808,214.945c0.133,0.035,0.301,0.049,0.504,0.049c0.735,0,1.184-0.364,1.184-1.001c0-0.63-0.448-0.932-1.114-0.932
		c-0.266,0-0.469,0.021-0.574,0.049V214.945z"/>
	<path d="M136.147,213.944l0.735,2.003c0.084,0.224,0.168,0.49,0.224,0.693h0.014c0.063-0.203,0.133-0.462,0.217-0.708l0.672-1.989
		h0.651l-0.925,2.416c-0.441,1.163-0.742,1.751-1.163,2.122c-0.308,0.259-0.602,0.364-0.756,0.393l-0.154-0.511
		c0.154-0.049,0.357-0.147,0.54-0.301c0.168-0.133,0.371-0.371,0.518-0.687c0.028-0.063,0.049-0.112,0.049-0.147
		s-0.014-0.084-0.049-0.161l-1.247-3.124H136.147z"/>
	<path d="M139.787,213.944v1.429c0,0.532-0.014,0.875-0.042,1.358l0.021,0.007c0.21-0.413,0.322-0.651,0.553-1.043l1.058-1.751
		h0.721v3.39h-0.588v-1.436c0-0.554,0.014-0.841,0.042-1.394h-0.014c-0.224,0.441-0.364,0.714-0.567,1.058
		c-0.322,0.525-0.7,1.177-1.058,1.772h-0.714v-3.39H139.787z M140.187,212.564c0.021,0.301,0.168,0.532,0.448,0.532
		c0.301,0,0.441-0.231,0.476-0.532h0.441c-0.035,0.567-0.393,0.869-0.932,0.869c-0.616,0-0.854-0.393-0.882-0.869H140.187z"/>
	<path d="M143.693,213.944v1.366h1.604v-1.366h0.616v3.39h-0.616V215.8h-1.604v1.534h-0.616v-3.39H143.693z"/>
	<path d="M147.116,213.944l0.735,2.003c0.084,0.224,0.168,0.49,0.224,0.693h0.014c0.063-0.203,0.133-0.462,0.217-0.708l0.672-1.989
		h0.651l-0.925,2.416c-0.441,1.163-0.742,1.751-1.163,2.122c-0.308,0.259-0.602,0.364-0.756,0.393l-0.154-0.511
		c0.154-0.049,0.357-0.147,0.54-0.301c0.168-0.133,0.371-0.371,0.518-0.687c0.028-0.063,0.049-0.112,0.049-0.147
		s-0.014-0.084-0.049-0.161l-1.247-3.124H147.116z"/>
	<path d="M150.167,213.986c0.245-0.042,0.687-0.077,1.079-0.077c0.574,0,1.513,0.098,1.513,0.847c0,0.42-0.322,0.687-0.707,0.771
		v0.014c0.497,0.07,0.861,0.343,0.861,0.833c0,0.89-1.121,1.001-1.786,1.001c-0.378,0-0.777-0.028-0.959-0.042V213.986z
		 M150.756,216.934c0.175,0.014,0.301,0.021,0.49,0.021c0.42,0,1.037-0.091,1.037-0.588c0-0.49-0.498-0.596-1.079-0.596h-0.448
		V216.934z M150.763,215.373h0.462c0.455,0,0.924-0.133,0.924-0.54c0-0.336-0.294-0.497-0.91-0.497c-0.21,0-0.336,0.014-0.477,0.028
		V215.373z"/>
	<path d="M156.07,216.521c0,0.294,0.014,0.582,0.049,0.813h-0.553l-0.049-0.427h-0.021c-0.189,0.266-0.553,0.504-1.037,0.504
		c-0.687,0-1.037-0.483-1.037-0.974c0-0.819,0.729-1.268,2.038-1.261v-0.07c0-0.273-0.077-0.785-0.771-0.777
		c-0.322,0-0.651,0.091-0.889,0.252l-0.14-0.413c0.28-0.175,0.693-0.294,1.121-0.294c1.037,0,1.289,0.708,1.289,1.38V216.521z
		 M155.475,215.604c-0.672-0.014-1.436,0.105-1.436,0.764c0,0.406,0.266,0.588,0.574,0.588c0.448,0,0.736-0.28,0.833-0.567
		c0.021-0.07,0.028-0.14,0.028-0.196V215.604z"/>
	<path d="M157.658,213.944v1.366h1.604v-1.366h0.616v3.39h-0.616V215.8h-1.604v1.534h-0.616v-3.39H157.658z"/>
	<path d="M161.479,213.944v1.366h1.604v-1.366h0.616v3.39h-0.616V215.8h-1.604v1.534h-0.616v-3.39H161.479z"/>
	<path d="M167.207,217.333h-0.609v-1.422h-0.456c-0.259,0-0.434,0.07-0.56,0.196c-0.259,0.203-0.35,0.616-0.483,0.945
		c-0.042,0.105-0.091,0.196-0.14,0.28H164.3c0.077-0.112,0.147-0.238,0.21-0.385c0.147-0.329,0.231-0.771,0.532-1.022
		c0.105-0.091,0.231-0.161,0.385-0.196v-0.014c-0.441-0.049-0.896-0.322-0.896-0.848c0-0.35,0.189-0.588,0.448-0.735
		c0.28-0.168,0.693-0.231,1.142-0.231c0.399,0,0.792,0.028,1.085,0.07V217.333z M166.598,214.35
		c-0.154-0.021-0.294-0.035-0.512-0.035c-0.413,0-0.917,0.119-0.917,0.588c0,0.434,0.54,0.595,0.904,0.595c0.259,0,0.385,0,0.525,0
		V214.35z"/>
	<path d="M135.246,224.61c0,1.254-0.875,1.8-1.688,1.8c-0.911,0-1.625-0.672-1.625-1.744c0-1.127,0.75-1.793,1.681-1.793
		C134.587,222.874,135.246,223.581,135.246,224.61z M132.563,224.646c0,0.743,0.42,1.303,1.022,1.303c0.588,0,1.03-0.553,1.03-1.317
		c0-0.574-0.287-1.295-1.016-1.295C132.878,223.336,132.563,224.008,132.563,224.646z"/>
	<path d="M138.437,226.214c-0.161,0.077-0.519,0.196-0.974,0.196c-1.022,0-1.688-0.693-1.688-1.73c0-1.043,0.714-1.807,1.821-1.807
		c0.364,0,0.687,0.091,0.854,0.182l-0.14,0.469c-0.147-0.077-0.378-0.161-0.715-0.161c-0.777,0-1.197,0.582-1.197,1.282
		c0,0.785,0.504,1.268,1.176,1.268c0.351,0,0.582-0.084,0.757-0.161L138.437,226.214z"/>
	<path d="M141.559,222.944v0.483h-1.058v2.907h-0.617v-2.907h-1.058v-0.483H141.559z"/>
	<path d="M144.429,225.521c0,0.294,0.014,0.582,0.049,0.813h-0.553l-0.049-0.427h-0.021c-0.189,0.266-0.553,0.504-1.037,0.504
		c-0.687,0-1.037-0.483-1.037-0.974c0-0.819,0.729-1.268,2.038-1.261v-0.07c0-0.273-0.077-0.785-0.771-0.777
		c-0.322,0-0.651,0.091-0.889,0.252l-0.14-0.413c0.28-0.175,0.693-0.294,1.121-0.294c1.037,0,1.289,0.708,1.289,1.38V225.521z
		 M143.834,224.604c-0.672-0.014-1.436,0.105-1.436,0.764c0,0.406,0.266,0.588,0.574,0.588c0.448,0,0.736-0.28,0.833-0.567
		c0.021-0.07,0.028-0.14,0.028-0.196V224.604z"/>
	<path d="M146.017,222.944v1.366h1.604v-1.366h0.616v3.39h-0.616V224.8h-1.604v1.534H145.4v-3.39H146.017z"/>
	<path d="M149.839,222.944v1.366h1.604v-1.366h0.616v3.39h-0.616V224.8h-1.604v1.534h-0.616v-3.39H149.839z"/>
	<path d="M153.752,221.991c0,0.21-0.147,0.378-0.392,0.378c-0.224,0-0.372-0.168-0.372-0.378s0.154-0.385,0.385-0.385
		C153.598,221.606,153.752,221.774,153.752,221.991z M153.065,226.333v-3.39h0.616v3.39H153.065z"/>
	<path d="M154.991,222.944l0.483,0.728c0.133,0.189,0.238,0.357,0.35,0.546h0.014c0.112-0.196,0.224-0.371,0.343-0.553l0.469-0.721
		h0.672l-1.156,1.639l1.184,1.751h-0.693l-0.504-0.763c-0.133-0.196-0.245-0.385-0.364-0.588h-0.014
		c-0.112,0.203-0.224,0.385-0.357,0.588l-0.49,0.763h-0.679l1.205-1.73l-1.149-1.66H154.991z"/>
	<path d="M132.199,230.669c0.294-0.049,0.679-0.091,1.17-0.091c0.602,0,1.043,0.14,1.323,0.392c0.252,0.224,0.414,0.567,0.414,0.987
		c0,0.427-0.126,0.764-0.364,1.009c-0.329,0.343-0.848,0.518-1.443,0.518c-0.182,0-0.35-0.007-0.49-0.042v1.891h-0.609V230.669z
		 M132.808,232.945c0.133,0.035,0.301,0.049,0.504,0.049c0.735,0,1.184-0.364,1.184-1.001c0-0.63-0.448-0.932-1.114-0.932
		c-0.266,0-0.469,0.021-0.574,0.049V232.945z"/>
	<path d="M136.532,230.613v1.975h2.283v-1.975h0.616v4.721h-0.616v-2.213h-2.283v2.213h-0.616v-4.721H136.532z"/>
	<path d="M141.096,230.613v2.094h0.189l1.618-2.094h0.728l-1.786,2.165c0.784,0.105,1.085,0.581,1.324,1.218
		c0.182,0.483,0.315,0.917,0.518,1.338h-0.651c-0.175-0.322-0.301-0.742-0.434-1.114c-0.217-0.623-0.511-1.05-1.31-1.05h-0.196
		v2.164h-0.609v-4.721H141.096z"/>
	<path d="M145.555,233.218v0.448h-1.73v-0.448H145.555z"/>
	<path d="M149.063,231.944v3.39h-0.616v-2.907h-1.576v2.907h-0.616v-3.39H149.063z"/>
	<path d="M150.063,233.05c0-0.434-0.014-0.785-0.028-1.106h0.546l0.035,0.581h0.014c0.245-0.413,0.651-0.651,1.205-0.651
		c0.827,0,1.443,0.693,1.443,1.716c0,1.219-0.75,1.821-1.548,1.821c-0.448,0-0.84-0.196-1.043-0.532h-0.014v1.842h-0.609V233.05z
		 M150.672,233.954c0,0.091,0.007,0.175,0.028,0.252c0.112,0.427,0.483,0.721,0.925,0.721c0.651,0,1.029-0.532,1.029-1.31
		c0-0.672-0.357-1.254-1.008-1.254c-0.42,0-0.819,0.294-0.932,0.756c-0.021,0.077-0.042,0.168-0.042,0.245V233.954z"/>
	<path d="M156.427,234.521c0,0.294,0.014,0.582,0.049,0.813h-0.553l-0.049-0.427h-0.021c-0.189,0.266-0.553,0.504-1.037,0.504
		c-0.687,0-1.037-0.483-1.037-0.974c0-0.819,0.729-1.268,2.038-1.261v-0.07c0-0.273-0.077-0.785-0.771-0.777
		c-0.322,0-0.651,0.091-0.889,0.252l-0.14-0.413c0.28-0.175,0.693-0.294,1.121-0.294c1.037,0,1.289,0.708,1.289,1.38V234.521z
		 M155.832,233.604c-0.672-0.014-1.436,0.105-1.436,0.764c0,0.406,0.266,0.588,0.574,0.588c0.448,0,0.736-0.28,0.833-0.567
		c0.021-0.07,0.028-0.14,0.028-0.196V233.604z"/>
	<path d="M157.987,231.944v1.429c0,0.532-0.014,0.875-0.042,1.358l0.021,0.007c0.21-0.413,0.322-0.651,0.553-1.043l1.058-1.751
		h0.721v3.39h-0.588v-1.436c0-0.554,0.014-0.841,0.042-1.394h-0.014c-0.224,0.441-0.364,0.714-0.567,1.058
		c-0.322,0.525-0.7,1.177-1.058,1.772h-0.714v-3.39H157.987z M158.386,230.564c0.021,0.301,0.168,0.532,0.448,0.532
		c0.301,0,0.441-0.231,0.476-0.532h0.441c-0.035,0.567-0.393,0.869-0.932,0.869c-0.616,0-0.854-0.393-0.882-0.869H158.386z"/>
	<path d="M161.339,231.944h0.756l0.609,1.708c0.091,0.252,0.231,0.666,0.308,0.932h0.014c0.077-0.259,0.266-0.792,0.406-1.163
		l0.539-1.478h0.764l0.238,3.39h-0.588l-0.077-1.618c-0.014-0.372-0.042-0.799-0.056-1.212h-0.021
		c-0.091,0.308-0.189,0.574-0.378,1.1l-0.651,1.709h-0.441l-0.603-1.681c-0.112-0.315-0.259-0.805-0.343-1.121h-0.028
		c-0.014,0.399-0.028,0.848-0.049,1.219l-0.091,1.604h-0.567L161.339,231.944z"/>
	<path d="M166.113,233.75c0.014,0.833,0.539,1.177,1.163,1.177c0.441,0,0.714-0.077,0.938-0.175l0.112,0.441
		c-0.217,0.098-0.596,0.217-1.135,0.217c-1.043,0-1.667-0.693-1.667-1.716c0-1.023,0.603-1.821,1.59-1.821
		c1.114,0,1.401,0.967,1.401,1.59c0,0.126-0.007,0.217-0.021,0.287H166.113z M167.92,233.31c0.007-0.385-0.161-0.995-0.854-0.995
		c-0.63,0-0.896,0.567-0.946,0.995H167.92z"/>
	<path d="M169.277,233.05c0-0.434-0.014-0.785-0.028-1.106h0.546l0.035,0.581h0.014c0.245-0.413,0.651-0.651,1.205-0.651
		c0.827,0,1.443,0.693,1.443,1.716c0,1.219-0.75,1.821-1.548,1.821c-0.448,0-0.84-0.196-1.043-0.532h-0.014v1.842h-0.609V233.05z
		 M169.887,233.954c0,0.091,0.007,0.175,0.028,0.252c0.112,0.427,0.483,0.721,0.925,0.721c0.651,0,1.029-0.532,1.029-1.31
		c0-0.672-0.357-1.254-1.008-1.254c-0.42,0-0.819,0.294-0.932,0.756c-0.021,0.077-0.042,0.168-0.042,0.245V233.954z"/>
	<path d="M173.946,230.991c0,0.21-0.147,0.378-0.392,0.378c-0.224,0-0.372-0.168-0.372-0.378s0.154-0.385,0.385-0.385
		C173.792,230.606,173.946,230.774,173.946,230.991z M173.26,235.333v-3.39h0.616v3.39H173.26z"/>
	<path d="M174.877,231.986c0.245-0.042,0.687-0.077,1.079-0.077c0.574,0,1.513,0.098,1.513,0.847c0,0.42-0.322,0.687-0.707,0.771
		v0.014c0.497,0.07,0.861,0.343,0.861,0.833c0,0.89-1.121,1.001-1.786,1.001c-0.378,0-0.777-0.028-0.959-0.042V231.986z
		 M175.465,234.934c0.175,0.014,0.301,0.021,0.49,0.021c0.42,0,1.037-0.091,1.037-0.588c0-0.49-0.498-0.596-1.079-0.596h-0.448
		V234.934z M175.472,233.373h0.462c0.455,0,0.924-0.133,0.924-0.54c0-0.336-0.294-0.497-0.91-0.497c-0.21,0-0.336,0.014-0.477,0.028
		V233.373z"/>
</g>
<path fill="none" stroke="#414042" stroke-width="0.75" stroke-miterlimit="10" d="M219.063,270.896
	c0,1.784,0.062,3.854-1.689,3.894c-0.997,0.022-2.857,0-2.857,0s-1.585,0.649-1.585,2.191c0-1.542-1.585-2.191-1.585-2.191
	s-1.86-0.013-2.857,0c-1.865,0.023-1.69-2.109-1.69-3.894"/>
<path fill="none" stroke="#414042" stroke-width="0.75" stroke-miterlimit="10" d="M32.784,289.894c0-1.784-0.062-3.854,1.689-3.894
	c0.997-0.022,2.857,0,2.857,0s1.585-0.649,1.585-2.191c0,1.542,1.585,2.191,1.585,2.191s1.86,0.013,2.857,0
	c1.865-0.023,1.69,2.109,1.69,3.894"/>
<g>
	<path d="M107.033,278.466h-1.737l-0.175,1.169c0.105-0.014,0.203-0.021,0.371-0.021c0.357,0,0.701,0.07,0.98,0.245
		c0.357,0.196,0.651,0.596,0.651,1.163c0,0.89-0.707,1.555-1.695,1.555c-0.497,0-0.911-0.14-1.135-0.28l0.154-0.469
		c0.189,0.112,0.561,0.252,0.98,0.252c0.574,0,1.079-0.378,1.072-0.987c0-0.588-0.399-1.001-1.303-1.001
		c-0.266,0-0.469,0.021-0.637,0.042l0.294-2.185h2.178V278.466z"/>
	<path d="M108.873,277.653c-0.161,0.588-0.462,1.345-0.651,1.667l-0.392,0.042c0.147-0.413,0.336-1.135,0.413-1.639L108.873,277.653
		z"/>
	<path d="M110.98,280.385v0.448h-1.73v-0.448H110.98z"/>
	<path d="M114.488,279.11v3.39h-0.616v-2.907h-1.576v2.907h-0.616v-3.39H114.488z"/>
	<path d="M115.487,280.217c0-0.434-0.014-0.785-0.028-1.106h0.546l0.035,0.581h0.014c0.245-0.413,0.651-0.651,1.205-0.651
		c0.827,0,1.443,0.693,1.443,1.716c0,1.219-0.75,1.821-1.548,1.821c-0.448,0-0.84-0.196-1.043-0.532h-0.014v1.842h-0.609V280.217z
		 M116.096,281.12c0,0.091,0.007,0.175,0.028,0.252c0.112,0.427,0.483,0.721,0.925,0.721c0.651,0,1.029-0.532,1.029-1.31
		c0-0.672-0.357-1.254-1.008-1.254c-0.42,0-0.819,0.294-0.932,0.756c-0.021,0.077-0.042,0.168-0.042,0.245V281.12z"/>
	<path d="M122.538,280.777c0,1.254-0.875,1.8-1.688,1.8c-0.911,0-1.625-0.672-1.625-1.744c0-1.127,0.75-1.793,1.681-1.793
		C121.879,279.04,122.538,279.748,122.538,280.777z M119.855,280.812c0,0.743,0.42,1.303,1.022,1.303c0.588,0,1.03-0.553,1.03-1.317
		c0-0.574-0.287-1.295-1.016-1.295C120.17,279.502,119.855,280.175,119.855,280.812z"/>
	<path d="M125.379,279.11v0.49h-1.471v2.899h-0.609v-3.39H125.379z"/>
	<path d="M128.291,281.688c0,0.294,0.014,0.582,0.049,0.813h-0.553l-0.049-0.427h-0.021c-0.189,0.266-0.553,0.504-1.037,0.504
		c-0.687,0-1.037-0.483-1.037-0.974c0-0.819,0.729-1.268,2.038-1.261v-0.07c0-0.273-0.077-0.785-0.771-0.777
		c-0.322,0-0.651,0.091-0.889,0.252l-0.14-0.413c0.28-0.175,0.693-0.294,1.121-0.294c1.037,0,1.289,0.708,1.289,1.38V281.688z
		 M127.696,280.77c-0.672-0.014-1.436,0.105-1.436,0.764c0,0.406,0.266,0.588,0.574,0.588c0.448,0,0.736-0.28,0.833-0.567
		c0.021-0.07,0.028-0.14,0.028-0.196V280.77z"/>
	<path d="M131.875,279.11v3.39h-0.616v-2.907h-1.163v0.869c0,0.953-0.091,1.59-0.532,1.877c-0.168,0.133-0.357,0.21-0.672,0.21
		l-0.063-0.483c0.119-0.021,0.252-0.07,0.336-0.14c0.315-0.231,0.35-0.708,0.35-1.464v-1.352H131.875z"/>
	<path d="M133.442,279.11v1.429c0,0.532-0.014,0.875-0.042,1.358l0.021,0.007c0.21-0.414,0.322-0.651,0.553-1.043l1.058-1.751h0.721
		v3.39h-0.588v-1.436c0-0.554,0.014-0.841,0.042-1.394h-0.014c-0.224,0.441-0.364,0.714-0.567,1.058
		c-0.322,0.525-0.7,1.177-1.058,1.772h-0.714v-3.39H133.442z"/>
	<path d="M137.348,279.11v1.366h1.604v-1.366h0.616v3.39h-0.616v-1.534h-1.604v1.534h-0.616v-3.39H137.348z"/>
	<path d="M141.142,279.11v1.429c0,0.532-0.014,0.875-0.042,1.358l0.021,0.007c0.21-0.414,0.322-0.651,0.553-1.043l1.058-1.751h0.721
		v3.39h-0.588v-1.436c0-0.554,0.014-0.841,0.042-1.394h-0.014c-0.224,0.441-0.364,0.714-0.567,1.058
		c-0.322,0.525-0.7,1.177-1.058,1.772h-0.714v-3.39H141.142z"/>
</g>
<g>
	<g>
		<line fill="none" stroke="#459DD7" stroke-width="0.75" stroke-miterlimit="10" x1="38.821" y1="282.089" x2="101.25" y2="280"/>
		<g>
			<circle fill="#459DD7" cx="38.877" cy="282.087" r="1.128"/>
		</g>
	</g>
</g>
<g>
	<g>
		<line fill="none" stroke="#459DD7" stroke-width="0.75" stroke-miterlimit="10" x1="212.929" y1="278.688" x2="146.75" y2="280"/>
		<g>
			<circle fill="#459DD7" cx="212.872" cy="278.689" r="1.128"/>
		</g>
	</g>
</g>
</svg>
